<svg xmlns="http://www.w3.org/2000/svg" xmlns:xlink="http://www.w3.org/1999/xlink" width="60" height="81.065" viewBox="0 0 60 81.065"><defs><style>.a{fill:#fff;}.b{filter:url(#a);}</style><filter id="a" x="0" y="0" width="60" height="81.065" filterUnits="userSpaceOnUse"><feOffset dy="10" input="SourceAlpha"/><feGaussianBlur stdDeviation="5" result="b"/><feFlood flood-color="#241901" flood-opacity="0.6"/><feComposite operator="in" in2="b"/><feComposite in="SourceGraphic"/></filter></defs><g transform="translate(15 5)"><g transform="translate(0)"><g class="b" transform="matrix(1, 0, 0, 1, -15, -5)"><path class="a" d="M102.293,23.54,125.017.816a2.8,2.8,0,0,1,3.951,0l1.673,1.673a2.8,2.8,0,0,1,0,3.951L111.559,25.522l19.1,19.1a2.8,2.8,0,0,1,0,3.951l-1.673,1.673a2.8,2.8,0,0,1-3.951,0L102.293,27.5a2.819,2.819,0,0,1,0-3.964Z" transform="translate(-86.48 5)"/></g></g></g></svg>