<svg xmlns="http://www.w3.org/2000/svg" width="45" height="45" viewBox="0 0 45 45"><defs><style>.a{fill:#004f71;}</style></defs><path class="a" d="M174.652,108.732c-3.043-1-4.3-1.657-4.3-2.688,0-.876.752-1.752,3.078-1.752a13.261,13.261,0,0,1,5.157,1.064l1.038-3.534a14.424,14.424,0,0,0-5.192-1.031V98.039h-3.507v2.971c-3.83.657-6.052,2.813-6.052,5.565,0,3.032,2.615,4.6,6.445,5.721,2.65.782,3.8,1.533,3.8,2.722,0,1.25-1.4,1.937-3.437,1.937a14.093,14.093,0,0,1-5.944-1.375l-1.076,3.659a16.1,16.1,0,0,0,6.087,1.344v2.968h3.51v-3.187c4.116-.626,6.372-3,6.372-5.784C180.631,111.764,178.911,110.045,174.652,108.732Z" transform="translate(-150.146 -88.295)"/><path class="a" d="M22.5,0A22.5,22.5,0,1,0,45,22.5,22.5,22.5,0,0,0,22.5,0Zm0,41.538A19.038,19.038,0,1,1,41.538,22.5,19.06,19.06,0,0,1,22.5,41.538Z"/></svg>