<svg xmlns="http://www.w3.org/2000/svg" width="50.8" height="34.133" viewBox="0 0 50.8 34.133"><defs><style>.a{fill:#004f71;stroke:#004f71;stroke-width:0.8px;}</style></defs><g transform="translate(0.4 0.4)"><g transform="translate(0)"><path class="a" d="M44.792,85.333H5.208A5.216,5.216,0,0,0,0,90.541v22.917a5.216,5.216,0,0,0,5.208,5.208H44.792A5.216,5.216,0,0,0,50,113.458V90.541A5.215,5.215,0,0,0,44.792,85.333Zm3.125,28.125a3.129,3.129,0,0,1-3.125,3.125H5.208a3.129,3.129,0,0,1-3.125-3.125V90.541a3.129,3.129,0,0,1,3.125-3.125H44.792a3.129,3.129,0,0,1,3.125,3.125v22.917Z" transform="translate(0 -85.333)"/></g><g transform="translate(0 6.361)"><g transform="translate(0 0)"><path class="a" d="M48.958,149.333H1.042A1.015,1.015,0,0,0,0,150.319v5.917a1.015,1.015,0,0,0,1.042.986H48.958A1.015,1.015,0,0,0,50,156.236v-5.917A1.016,1.016,0,0,0,48.958,149.333Zm-1.042,5.917H2.083v-3.945H47.917v3.945Z" transform="translate(0 -149.333)"/></g></g><g transform="translate(5.917 20.907)"><g transform="translate(0 0)"><path class="a" d="M76.82,298.667H64.986a.986.986,0,1,0,0,1.972H76.82a.986.986,0,1,0,0-1.972Z" transform="translate(-64 -298.667)"/></g></g><g transform="translate(5.917 25.089)"><g transform="translate(0 0)"><path class="a" d="M76.82,341.333H64.986a.986.986,0,1,0,0,1.972H76.82a.986.986,0,0,0,0-1.972Z" transform="translate(-64 -341.333)"/></g></g><g transform="translate(36.194 19.083)"><g transform="translate(0 0)"><path class="a" d="M367.6,277.333h-1.972a2.962,2.962,0,0,0-2.958,2.958v1.972a2.962,2.962,0,0,0,2.958,2.958H367.6a2.962,2.962,0,0,0,2.958-2.958v-1.972A2.962,2.962,0,0,0,367.6,277.333Zm.986,4.931a.987.987,0,0,1-.986.986h-1.972a.987.987,0,0,1-.986-.986v-1.972a.987.987,0,0,1,.986-.986H367.6a.987.987,0,0,1,.986.986Z" transform="translate(-362.667 -277.333)"/></g></g></g></svg>