<svg xmlns="http://www.w3.org/2000/svg" width="45.708" height="45.708" viewBox="0 0 45.708 45.708"><defs><style>.a{fill:#004f71;stroke:#004f71;stroke-width:0.5px;}</style></defs><g transform="translate(0.458 0.25)"><path class="a" d="M45,5.354A5.3,5.3,0,0,0,39.7,0h-.056a5.26,5.26,0,0,0-3.769,1.63L28,9.838,7.39,3.017,1.3,9.1,18.527,19.709,11.44,27.094l-5.562-.913L0,32.058l9.585,3.357L12.942,45l5.877-5.877-.913-5.562,7.385-7.087L35.9,43.7l6.087-6.087L35.162,17,43.37,9.124A5.26,5.26,0,0,0,45,5.354ZM41.543,7.22l-9.409,9.029L38.966,36.9l-2.574,2.574L25.824,22.3,15.077,32.618l.919,5.6-1.951,1.951-2.389-6.82-6.82-2.389L6.786,29l5.6.919L22.7,19.177,5.531,8.608,8.105,6.034l20.646,6.833,9.029-9.409a2.64,2.64,0,0,1,1.892-.818H39.7a2.661,2.661,0,0,1,1.841,4.58Z"/></g></svg>