<svg xmlns="http://www.w3.org/2000/svg" width="45.59" height="45.545" viewBox="0 0 45.59 45.545"><defs><style>.a{fill:#004f71;stroke:#004f71;stroke-width:0.5px;}</style></defs><g transform="translate(0.295 0.25)"><path class="a" d="M45,30.454A14.579,14.579,0,0,0,34.348,16.437,17.182,17.182,0,1,0,2.383,25.916L.063,34.3l8.386-2.319a17.119,17.119,0,0,0,7.988,2.365,14.55,14.55,0,0,0,21.418,8.63l7.081,1.959-1.959-7.081A14.494,14.494,0,0,0,45,30.454ZM8.865,29.132,3.845,30.52,5.234,25.5l-.317-.5A14.541,14.541,0,1,1,9.36,29.448Zm32.29,12.024L37.43,40.124l-.5.324a11.914,11.914,0,0,1-17.769-6.2A17.215,17.215,0,0,0,34.251,19.163a11.914,11.914,0,0,1,6.2,17.769l-.324.5Zm0,0" transform="translate(0 0)"/><path class="a" d="M180.5,271h3.463v3.463H180.5Zm0,0" transform="translate(-164.945 -247.646)"/><path class="a" d="M145.889,96.926a3.427,3.427,0,0,1-1.127,2.556l-4.067,3.723v4.225h3.463v-2.7l2.942-2.693a6.926,6.926,0,1,0-11.6-5.111h3.463a3.463,3.463,0,0,1,6.926,0Zm0,0" transform="translate(-124.733 -83.127)"/></g></svg>