<svg xmlns="http://www.w3.org/2000/svg" width="29.999" height="20.612" viewBox="0 0 29.999 20.612"><defs><style>.a{fill:#009b3a;}.b{fill:#007c29;}.c{fill:#006d21;}.d{fill:#fedf00;}.e{fill:#fcc000;}.f{fill:#002776;}.g{fill:#021e47;}.h{fill:#fff;}</style></defs><g transform="translate(0 -80.103)"><path class="a" d="M30,97.764a2.922,2.922,0,0,1-2.9,2.952H2.9A2.922,2.922,0,0,1,0,97.764V83.055A2.922,2.922,0,0,1,2.9,80.1H27.1A2.922,2.922,0,0,1,30,83.055V97.764Z"/><path class="b" d="M49.548,80.1H73.741a2.922,2.922,0,0,1,2.9,2.952V97.764a2.922,2.922,0,0,1-2.9,2.952" transform="translate(-46.645)"/><g transform="translate(0 80.103)"><path class="c" d="M49.548,80.1H73.741a2.922,2.922,0,0,1,2.9,2.952v5.371" transform="translate(-46.645 -80.103)"/><path class="c" d="M30,381.523a2.922,2.922,0,0,1-2.9,2.952H2.9A2.922,2.922,0,0,1,0,381.523" transform="translate(0 -363.862)"/></g><path class="d" d="M31.381,120.729l13.161,8.419L57.7,120.729,44.542,112.31Z" transform="translate(-29.542 -30.32)"/><g transform="translate(9.339 81.99)"><path class="e" d="M229.568,382.587l1.645-1.064h-3.29Z" transform="translate(-223.907 -365.749)"/><path class="e" d="M159.381,115.939l11.322,9.58,7.5-4.79-13.161-8.419Z" transform="translate(-159.381 -112.31)"/></g><circle class="f" cx="5.564" cy="5.564" r="5.564" transform="translate(9.435 84.845)"/><path class="g" d="M188.365,161.032a5.6,5.6,0,0,0-4.21,1.935l8.468,7.21a5.517,5.517,0,0,0,1.306-3.581A5.6,5.6,0,0,0,188.365,161.032Z" transform="translate(-173.365 -76.187)"/><path class="h" d="M164.178,215.677a5.519,5.519,0,0,0-.3.873,12.793,12.793,0,0,1,2.3-.192,12.633,12.633,0,0,1,8.416,3.187,5.535,5.535,0,0,0,.192-.866,13.443,13.443,0,0,0-8.656-3.144A13.59,13.59,0,0,0,164.178,215.677Z" transform="translate(-154.278 -127.498)"/></g></svg>