<svg xmlns="http://www.w3.org/2000/svg" width="30.379" height="20.579" viewBox="0 0 30.379 20.579"><defs><style>.a{fill:#dc3027;}.b{fill:#ce2420;}.c{fill:#b50808;}.d{fill:#f8d12e;}.e{fill:#f7b92f;}</style></defs><path class="a" d="M30.379,97.737a2.836,2.836,0,0,1-2.94,2.842H2.94A2.836,2.836,0,0,1,0,97.737v-14.9A2.836,2.836,0,0,1,2.94,80h24.5a2.836,2.836,0,0,1,2.94,2.842Z" transform="translate(0 -80)"/><path class="b" d="M48,80H72.5a2.836,2.836,0,0,1,2.94,2.842v14.9a3.053,3.053,0,0,1-3.185,2.842" transform="translate(-45.06 -80)"/><g transform="translate(0 0)"><path class="c" d="M48,80H72.5a2.836,2.836,0,0,1,2.94,2.842V88.33" transform="translate(-45.06 -80)"/><path class="c" d="M30.379,368.049a2.79,2.79,0,0,1-2.94,2.891H2.94A2.917,2.917,0,0,1,0,368" transform="translate(0 -350.361)"/></g><path class="d" d="M38.336,130.4l.735,2.3h2.4l-1.911,1.372.735,2.254-1.96-1.421-1.911,1.372.735-2.2L35.2,132.7h2.4Z" transform="translate(-33.044 -127.313)"/><path class="e" d="M151.315,108l-.2.784.686.49h-.833l-.245.833-.294-.833-.833.049.686-.49-.294-.784.686.441Z" transform="translate(-140.437 -106.285)"/><path class="d" d="M151.315,224.8l-.2.784.686.49-.833.049-.245.784-.294-.784H149.6l.686-.49-.294-.784.686.441Z" transform="translate(-140.437 -215.931)"/><path class="e" d="M184.915,143.2l-.245.833.686.441-.833.049-.245.784-.245-.784-.833.049.637-.539-.294-.784.686.49Z" transform="translate(-171.979 -139.329)"/><path class="d" d="M184.915,191.2l-.245.784.686.49h-.833l-.245.833-.245-.784H183.2l.637-.49-.294-.784.686.441Z" transform="translate(-171.979 -184.389)"/></svg>