<svg xmlns="http://www.w3.org/2000/svg" width="30" height="20.615" viewBox="0 0 30 20.615"><defs><style>.a{fill:#273375;}.b{fill:#192760;}.c{fill:#101f4f;}.d{fill:#fff;}.e{fill:#d9eced;}.f{fill:#e51d35;}.g{fill:#af0026;}</style></defs><g transform="translate(0 -77.585)"><path class="a" d="M30,95.275a2.922,2.922,0,0,1-2.9,2.952H2.9A2.922,2.922,0,0,1,0,95.275V80.566a2.922,2.922,0,0,1,2.9-2.952H27.1A2.922,2.922,0,0,1,30,80.566Z" transform="translate(0 -0.027)"/><path class="b" d="M48,77.614H72.194a2.922,2.922,0,0,1,2.9,2.952v14.71a2.922,2.922,0,0,1-2.9,2.952Z" transform="translate(-45.097 -0.027)"/><g transform="translate(2.903 77.587)"><path class="b" d="M48,77.614H72.194a2.922,2.922,0,0,1,2.9,2.952v14.71a2.922,2.922,0,0,1-2.9,2.952Z" transform="translate(-48 -77.614)"/></g><g transform="translate(0 77.587)"><path class="c" d="M30,369.614a2.922,2.922,0,0,1-2.9,2.952H2.9A2.922,2.922,0,0,1,0,369.614Z" transform="translate(0 -351.953)"/><path class="c" d="M48,77.614H72.194a2.922,2.922,0,0,1,2.9,2.952v5.371Z" transform="translate(-45.097 -77.614)"/></g><g transform="translate(5.842 83.587)"><path class="d" d="M98.714,283.284l.406,1.308,1.3-.508-.749,1.156,1.207.7-1.41.1.2,1.359-.953-1-.953,1,.2-1.359-1.384-.114,1.207-.7-.775-1.143,1.308.5Z" transform="translate(-96.58 -276.844)"/><path class="d" d="M349.768,332.814l.194.629.581-.242-.339.532.532.339-.629.048.1.629-.435-.484-.435.484.1-.629-.629-.048.532-.339-.339-.532.581.242Z" transform="translate(-333.545 -323.379)"/><path class="d" d="M291.368,240.014l.194.629.581-.242-.339.532.532.339-.629.048.1.629-.435-.484-.435.484.1-.629-.629-.048.532-.339-.339-.532.581.242Z" transform="translate(-278.677 -236.191)"/><path class="d" d="M349.768,176.814l.194.629.581-.242-.339.532.532.339-.629.048.1.629-.435-.484-.435.484.1-.629-.629-.048.532-.339-.339-.532.581.242Z" transform="translate(-333.545 -176.814)"/><path class="d" d="M401.016,224.814l.194.629.581-.242-.339.532.532.339-.629.048.1.629-.435-.484-.435.484.1-.629-.677-.1.532-.339-.339-.532.581.242Z" transform="translate(-381.648 -221.911)"/><path class="d" d="M379.732,272.014l.145.387.387.048-.29.194.1.387-.339-.194-.339.194.1-.387-.29-.242.387-.048Z" transform="translate(-362.106 -266.256)"/></g><path class="c" d="M150.181,79.911l2.3-2.3H148.8v1.873Z" transform="translate(-139.8 -0.027)"/><path class="b" d="M58.029,81.243V77.614H54.4Z" transform="translate(-51.11 -0.027)"/><path class="c" d="M58.029,77.614H54.4l.347.347,3.282.974Z" transform="translate(-51.11 -0.027)"/><path class="d" d="M15.979,82.51v-.538H10.025l4.358-4.358H12.834L9.157,81.291V77.614H7.076v3.629L3.447,77.614H3.06a2.9,2.9,0,0,0-1.022.188l4.212,4.17H.167V84.1H6.344L1.85,88.549H3.4l3.677-3.677v3.677H9.157V84.92l3.629,3.629h1.669L9.925,84.1h6.054V83.56h-.006V82.51Z" transform="translate(-0.157 -0.027)"/><path class="e" d="M123.3,82.51v-.538h-5.955l4.358-4.358h-1.548l-3.677,3.677V77.614H114.4v3.629l2.849,2.855H123.3V83.56H123.3V82.51Z" transform="translate(-107.481 -0.027)"/><path class="d" d="M39.2,77.662c.03-.006.067-.042.1-.048C39.267,77.62,39.236,77.656,39.2,77.662Z" transform="translate(-36.829 -0.027)"/><g transform="translate(1.694 86.847)"><path class="e" d="M181.1,230.714l1.675,1.675h.823l-1.694-1.675Z" transform="translate(-171.84 -230.714)"/><path class="e" d="M43.145,230.714,41.5,232.389h.732l1.675-1.675Z" transform="translate(-40.683 -230.714)"/><path class="e" d="M203.575,232.389h.411l-1.706-1.675H201.9Z" transform="translate(-191.382 -230.714)"/><rect class="e" width="0.532" height="1.675" transform="translate(6.774)"/><rect class="e" width="0.435" height="1.675" transform="translate(5.226)"/><path class="e" d="M29.694,230.714,28,232.389h.333l1.645-1.675Z" transform="translate(-28 -230.714)"/></g><g transform="translate(0.01 77.585)"><path class="f" d="M40.9,77.587a.341.341,0,0,0,.079,0C40.954,77.593,40.924,77.581,40.9,77.587Z" transform="translate(-38.436 -77.585)"/><path class="f" d="M8.635,82.51v-4.9H7.512v4.9H.167v1.05H7.512v4.99H8.625V83.56h7.349V82.51Z" transform="translate(-0.167 -77.612)"/><path class="f" d="M39.655,81.972h.523l-4.367-4.358a2.557,2.557,0,0,0-.411.1Z" transform="translate(-33.269 -77.612)"/><path class="f" d="M148.161,184.806l4.49,4.452h.435l-4.452-4.452Z" transform="translate(-139.21 -178.321)"/><path class="f" d="M33.5,189.258h.484l4.365-4.452h-.483Z" transform="translate(-31.484 -178.321)"/></g><g transform="translate(2.026 77.587)"><path class="g" d="M153.287,77.614h-.513l-4.367,4.358h.523Z" transform="translate(-141.457 -77.614)"/><path class="g" d="M122.723,82.51v-4.9H121.6v4.059l1.123,1.145.727.741h6.612V82.51Z" transform="translate(-116.271 -77.614)"/><path class="g" d="M35.145,230.714,33.5,232.389h.484l1.645-1.675Z" transform="translate(-33.5 -221.454)"/><rect class="g" width="1.113" height="1.675" transform="translate(5.329 9.26)"/><path class="g" d="M194.4,230.714l1.694,1.675h.435l-1.675-1.675Z" transform="translate(-184.668 -221.454)"/></g></g></svg>