<svg xmlns="http://www.w3.org/2000/svg" width="20" height="13.203" viewBox="0 0 20 13.203"><defs><style>.a{fill:#fff7ee;}.b{fill:#e02424;}.c{opacity:0.1;}.d{fill:#0853a4;}.e{fill:#fff;}</style></defs><g transform="translate(0 -87.005)"><path class="a" d="M20,99.787a.422.422,0,0,1-.421.421H.421A.422.422,0,0,1,0,99.787V87.426A.422.422,0,0,1,.421,87H19.579a.422.422,0,0,1,.421.421Z" transform="translate(0 0)"/><g transform="translate(0 87.005)"><path class="b" d="M221.4,87.006H209.372v1.34h12.476v-.9A.446.446,0,0,0,221.4,87.006Z" transform="translate(-201.848 -87.006)"/><path class="b" d="M197.722,209.2v.836a.5.5,0,0,1-.5.5H210.2V209.2H197.722Z" transform="translate(-190.198 -204.161)"/><rect class="b" width="20" height="1.34" transform="translate(0 7.556)"/></g><rect class="c" width="1.355" height="1.34" transform="translate(0 94.123)"/><g transform="translate(0 89.524)"><rect class="b" width="20" height="1.34" transform="translate(0 7.008)"/><path class="b" d="M20,393.383v-.9H0v.9a.434.434,0,0,0,.421.444H19.579A.435.435,0,0,0,20,393.383Z" transform="translate(0 -383.143)"/><rect class="b" width="12.476" height="1.34" transform="translate(7.524 0)"/></g><path class="d" d="M.444,87.006A.446.446,0,0,0,0,87.45v5.933H8.6a.5.5,0,0,0,.5-.5V87.006Z" transform="translate(0 -0.001)"/><path class="c" d="M1.844,87.006H.444A.446.446,0,0,0,0,87.45v5.933H1.4V87.45A.446.446,0,0,1,1.844,87.006Z" transform="translate(0 -0.001)"/><g transform="translate(0.793 87.61)"><path class="e" d="M37.057,116a.062.062,0,0,1-.03-.007l-.121-.065-.121.065a.062.062,0,0,1-.03.007.063.063,0,0,1-.037-.012.066.066,0,0,1-.025-.064l.023-.138-.1-.1a.066.066,0,0,1-.016-.067.064.064,0,0,1,.051-.044l.135-.02.061-.126a.063.063,0,0,1,.114,0l.061.126.135.02a.064.064,0,0,1,.051.044.066.066,0,0,1-.016.067l-.1.1.023.138a.066.066,0,0,1-.025.064A.063.063,0,0,1,37.057,116Z" transform="translate(-35.883 -114.829)"/><path class="e" d="M37.057,143.421a.061.061,0,0,1-.03-.007l-.121-.065-.121.065a.061.061,0,0,1-.03.007.063.063,0,0,1-.037-.012.066.066,0,0,1-.025-.064l.023-.138-.1-.1a.066.066,0,0,1-.016-.067.064.064,0,0,1,.051-.044l.135-.02.061-.126a.063.063,0,0,1,.114,0l.061.126.135.02a.064.064,0,0,1,.051.044.066.066,0,0,1-.016.067l-.1.1.023.138a.066.066,0,0,1-.025.064A.062.062,0,0,1,37.057,143.421Z" transform="translate(-35.883 -141.119)"/><path class="e" d="M37.057,170.843a.063.063,0,0,1-.03-.007l-.121-.065-.121.065a.062.062,0,0,1-.03.007.063.063,0,0,1-.037-.012.066.066,0,0,1-.025-.064l.023-.138-.1-.1a.067.067,0,0,1-.016-.067.064.064,0,0,1,.051-.044l.135-.02.061-.126a.063.063,0,0,1,.114,0l.061.126.135.02a.064.064,0,0,1,.051.044.066.066,0,0,1-.016.067l-.1.1.023.138a.066.066,0,0,1-.025.064A.063.063,0,0,1,37.057,170.843Z" transform="translate(-35.883 -167.411)"/><path class="e" d="M37.057,198.261a.063.063,0,0,1-.03-.007l-.121-.065-.121.065a.062.062,0,0,1-.03.007.062.062,0,0,1-.037-.012.066.066,0,0,1-.025-.064l.023-.138-.1-.1a.066.066,0,0,1-.016-.067.064.064,0,0,1,.051-.044l.135-.02.061-.126a.063.063,0,0,1,.114,0l.061.126.135.02a.064.064,0,0,1,.051.044.066.066,0,0,1-.016.067l-.1.1.023.138a.066.066,0,0,1-.025.064A.062.062,0,0,1,37.057,198.261Z" transform="translate(-35.883 -193.699)"/><path class="e" d="M19.689,102.289a.061.061,0,0,1-.03-.008l-.121-.065-.121.065a.061.061,0,0,1-.03.008.063.063,0,0,1-.037-.012.066.066,0,0,1-.025-.064l.023-.138-.1-.1a.066.066,0,0,1-.016-.067.064.064,0,0,1,.051-.044l.135-.02.061-.126a.063.063,0,0,1,.114,0l.061.126.135.02a.064.064,0,0,1,.051.044.066.066,0,0,1-.016.067l-.1.1.023.138a.066.066,0,0,1-.025.064A.063.063,0,0,1,19.689,102.289Z" transform="translate(-19.23 -101.683)"/><path class="e" d="M19.689,129.71a.063.063,0,0,1-.03-.007l-.121-.065-.121.065a.062.062,0,0,1-.03.007.063.063,0,0,1-.037-.012.066.066,0,0,1-.025-.064l.023-.138-.1-.1a.066.066,0,0,1-.016-.067.064.064,0,0,1,.051-.044l.135-.02.061-.126a.063.063,0,0,1,.114,0l.061.126.135.02a.064.064,0,0,1,.051.044.066.066,0,0,1-.016.067l-.1.1.023.138a.066.066,0,0,1-.025.064A.063.063,0,0,1,19.689,129.71Z" transform="translate(-19.23 -127.974)"/><path class="e" d="M19.689,157.131a.063.063,0,0,1-.03-.007l-.121-.065-.121.065a.063.063,0,0,1-.067,0,.066.066,0,0,1-.025-.064l.023-.138-.1-.1a.066.066,0,0,1-.016-.067.064.064,0,0,1,.051-.044l.135-.02.061-.126a.063.063,0,0,1,.114,0l.061.126.135.02a.064.064,0,0,1,.051.044.066.066,0,0,1-.016.067l-.1.1.023.138a.066.066,0,0,1-.025.064A.063.063,0,0,1,19.689,157.131Z" transform="translate(-19.23 -154.264)"/><path class="e" d="M19.689,184.55a.062.062,0,0,1-.03-.007l-.121-.065-.121.065a.063.063,0,0,1-.067,0,.066.066,0,0,1-.025-.064l.023-.138-.1-.1a.066.066,0,0,1-.016-.067.064.064,0,0,1,.051-.044l.135-.02.061-.126a.063.063,0,0,1,.114,0l.061.126.135.02a.064.064,0,0,1,.051.044.066.066,0,0,1-.016.067l-.1.1.023.138a.066.066,0,0,1-.025.064A.062.062,0,0,1,19.689,184.55Z" transform="translate(-19.23 -180.553)"/><path class="e" d="M19.689,211.971a.063.063,0,0,1-.03-.007l-.121-.065-.121.065a.063.063,0,0,1-.067,0,.066.066,0,0,1-.025-.064l.023-.138-.1-.1a.066.066,0,0,1-.016-.067.064.064,0,0,1,.051-.044l.135-.02.061-.126a.063.063,0,0,1,.114,0l.061.126.135.02a.064.064,0,0,1,.051.044.066.066,0,0,1-.016.067l-.1.1.023.138a.066.066,0,0,1-.025.064A.062.062,0,0,1,19.689,211.971Z" transform="translate(-19.23 -206.843)"/><path class="e" d="M70.773,116a.062.062,0,0,1-.03-.007l-.121-.065-.121.065a.062.062,0,0,1-.03.007.063.063,0,0,1-.037-.012.066.066,0,0,1-.025-.064l.023-.138-.1-.1a.066.066,0,0,1-.016-.067.064.064,0,0,1,.051-.044l.135-.02.061-.126a.063.063,0,0,1,.114,0l.061.126.135.02a.064.064,0,0,1,.051.044.066.066,0,0,1-.016.067l-.1.1.023.138a.066.066,0,0,1-.025.064A.063.063,0,0,1,70.773,116Z" transform="translate(-68.208 -114.829)"/><path class="e" d="M70.773,143.421a.061.061,0,0,1-.03-.007l-.121-.065-.121.065a.061.061,0,0,1-.03.007.063.063,0,0,1-.037-.012.066.066,0,0,1-.025-.064l.023-.138-.1-.1a.066.066,0,0,1-.016-.067.064.064,0,0,1,.051-.044l.135-.02.061-.126a.063.063,0,0,1,.114,0l.061.126.135.02a.064.064,0,0,1,.051.044.066.066,0,0,1-.016.067l-.1.1.023.138a.066.066,0,0,1-.025.064A.062.062,0,0,1,70.773,143.421Z" transform="translate(-68.208 -141.119)"/><path class="e" d="M70.773,170.843a.063.063,0,0,1-.03-.007l-.121-.065-.121.065a.062.062,0,0,1-.03.007.063.063,0,0,1-.037-.012.066.066,0,0,1-.025-.064l.023-.138-.1-.1a.066.066,0,0,1-.016-.067.064.064,0,0,1,.051-.044l.135-.02.061-.126a.063.063,0,0,1,.114,0l.061.126.135.02a.064.064,0,0,1,.051.044.066.066,0,0,1-.016.067l-.1.1.023.138a.066.066,0,0,1-.025.064A.062.062,0,0,1,70.773,170.843Z" transform="translate(-68.208 -167.411)"/><path class="e" d="M70.773,198.261a.062.062,0,0,1-.03-.007l-.121-.065-.121.065a.062.062,0,0,1-.067,0,.066.066,0,0,1-.025-.064l.023-.138-.1-.1a.066.066,0,0,1-.016-.067.064.064,0,0,1,.051-.044l.135-.02.061-.126a.063.063,0,0,1,.114,0l.061.126.135.02a.064.064,0,0,1,.051.044.066.066,0,0,1-.016.067l-.1.1.023.138a.066.066,0,0,1-.025.064A.062.062,0,0,1,70.773,198.261Z" transform="translate(-68.208 -193.699)"/><path class="e" d="M53.4,102.289a.061.061,0,0,1-.03-.008l-.121-.065-.121.065a.061.061,0,0,1-.03.008.062.062,0,0,1-.037-.012.066.066,0,0,1-.025-.064l.023-.138-.1-.1a.066.066,0,0,1-.016-.067.064.064,0,0,1,.051-.044l.135-.02.061-.126a.063.063,0,0,1,.114,0l.061.126.135.02a.064.064,0,0,1,.051.044.066.066,0,0,1-.016.067l-.1.1.023.138a.066.066,0,0,1-.025.064A.063.063,0,0,1,53.4,102.289Z" transform="translate(-51.557 -101.683)"/><path class="e" d="M53.4,129.71a.063.063,0,0,1-.03-.007l-.121-.065-.121.065a.062.062,0,0,1-.03.007.063.063,0,0,1-.037-.012.066.066,0,0,1-.025-.064l.023-.138-.1-.1a.066.066,0,0,1-.016-.067.064.064,0,0,1,.051-.044l.135-.02.061-.126a.063.063,0,0,1,.114,0l.061.126.135.02a.064.064,0,0,1,.051.044.066.066,0,0,1-.016.067l-.1.1.023.138a.066.066,0,0,1-.025.064A.063.063,0,0,1,53.4,129.71Z" transform="translate(-51.557 -127.974)"/><path class="e" d="M53.4,157.131a.063.063,0,0,1-.03-.007l-.121-.065-.121.065a.063.063,0,0,1-.067,0,.066.066,0,0,1-.025-.064l.023-.138-.1-.1a.066.066,0,0,1-.016-.067.064.064,0,0,1,.051-.044l.135-.02.061-.126a.063.063,0,0,1,.114,0l.061.126.135.02a.064.064,0,0,1,.051.044.066.066,0,0,1-.016.067l-.1.1.023.138a.066.066,0,0,1-.025.064A.063.063,0,0,1,53.4,157.131Z" transform="translate(-51.557 -154.264)"/><path class="e" d="M53.4,184.55a.061.061,0,0,1-.03-.007l-.121-.065-.121.065a.062.062,0,0,1-.03.007.062.062,0,0,1-.037-.012.066.066,0,0,1-.025-.064l.023-.138-.1-.1a.066.066,0,0,1-.016-.067.064.064,0,0,1,.051-.044l.135-.02.061-.126a.063.063,0,0,1,.114,0l.061.126.135.02a.064.064,0,0,1,.051.044.066.066,0,0,1-.016.067l-.1.1.023.138a.066.066,0,0,1-.025.064A.063.063,0,0,1,53.4,184.55Z" transform="translate(-51.557 -180.553)"/><path class="e" d="M53.4,211.971a.062.062,0,0,1-.03-.007l-.121-.065-.121.065a.062.062,0,0,1-.067,0,.066.066,0,0,1-.025-.064l.023-.138-.1-.1a.067.067,0,0,1-.016-.067.064.064,0,0,1,.051-.044l.135-.02.061-.126a.063.063,0,0,1,.114,0l.061.126.135.02a.064.064,0,0,1,.051.044.066.066,0,0,1-.016.067l-.1.1.023.138a.066.066,0,0,1-.025.064A.062.062,0,0,1,53.4,211.971Z" transform="translate(-51.557 -206.843)"/><path class="e" d="M104.488,116a.062.062,0,0,1-.03-.007l-.121-.065-.121.065a.062.062,0,0,1-.03.007.062.062,0,0,1-.037-.012.066.066,0,0,1-.025-.064l.023-.138-.1-.1a.066.066,0,0,1-.016-.067.064.064,0,0,1,.051-.044l.135-.02.061-.126a.063.063,0,0,1,.114,0l.061.126.135.02a.064.064,0,0,1,.051.044.066.066,0,0,1-.016.067l-.1.1.023.138a.066.066,0,0,1-.025.064A.063.063,0,0,1,104.488,116Z" transform="translate(-100.534 -114.829)"/><path class="e" d="M104.488,143.421a.061.061,0,0,1-.03-.007l-.121-.065-.121.065a.061.061,0,0,1-.03.007.062.062,0,0,1-.037-.012.066.066,0,0,1-.025-.064l.023-.138-.1-.1a.066.066,0,0,1-.016-.067.064.064,0,0,1,.051-.044l.135-.02.061-.126a.063.063,0,0,1,.114,0l.061.126.135.02a.064.064,0,0,1,.051.044.066.066,0,0,1-.016.067l-.1.1.023.138a.066.066,0,0,1-.025.064A.062.062,0,0,1,104.488,143.421Z" transform="translate(-100.534 -141.119)"/><path class="e" d="M104.488,170.843a.063.063,0,0,1-.03-.007l-.121-.065-.121.065a.062.062,0,0,1-.03.007.063.063,0,0,1-.037-.012.066.066,0,0,1-.025-.064l.023-.138-.1-.1a.066.066,0,0,1-.016-.067.064.064,0,0,1,.051-.044l.135-.02.061-.126a.063.063,0,0,1,.114,0l.061.126.135.02a.064.064,0,0,1,.051.044.066.066,0,0,1-.016.067l-.1.1.023.138a.066.066,0,0,1-.025.064A.063.063,0,0,1,104.488,170.843Z" transform="translate(-100.534 -167.411)"/><path class="e" d="M104.488,198.261a.063.063,0,0,1-.03-.007l-.121-.065-.121.065a.062.062,0,0,1-.067,0,.066.066,0,0,1-.025-.064l.023-.138-.1-.1a.066.066,0,0,1-.016-.067.064.064,0,0,1,.051-.044l.135-.02.061-.126a.063.063,0,0,1,.114,0l.061.126.135.02a.064.064,0,0,1,.051.044.066.066,0,0,1-.016.067l-.1.1.023.138a.066.066,0,0,1-.025.064A.062.062,0,0,1,104.488,198.261Z" transform="translate(-100.534 -193.699)"/><path class="e" d="M87.12,102.289a.061.061,0,0,1-.03-.008l-.121-.065-.121.065a.061.061,0,0,1-.03.008.062.062,0,0,1-.037-.012.066.066,0,0,1-.025-.064l.023-.138-.1-.1a.066.066,0,0,1-.016-.067.064.064,0,0,1,.051-.044l.135-.02.061-.126a.063.063,0,0,1,.114,0l.061.126.135.02a.064.064,0,0,1,.051.044.066.066,0,0,1-.016.067l-.1.1.023.138a.066.066,0,0,1-.025.064A.062.062,0,0,1,87.12,102.289Z" transform="translate(-83.881 -101.683)"/><path class="e" d="M87.12,129.71a.063.063,0,0,1-.03-.007l-.121-.065-.121.065a.062.062,0,0,1-.03.007.063.063,0,0,1-.037-.012.066.066,0,0,1-.025-.064l.023-.138-.1-.1a.066.066,0,0,1-.016-.067.064.064,0,0,1,.051-.044l.135-.02.061-.126a.063.063,0,0,1,.114,0l.061.126.135.02a.064.064,0,0,1,.051.044.066.066,0,0,1-.016.067l-.1.1.023.138a.066.066,0,0,1-.025.064A.063.063,0,0,1,87.12,129.71Z" transform="translate(-83.881 -127.974)"/><path class="e" d="M87.12,157.131a.063.063,0,0,1-.03-.007l-.121-.065-.121.065a.063.063,0,0,1-.067,0,.066.066,0,0,1-.025-.064l.023-.138-.1-.1a.066.066,0,0,1-.016-.067.064.064,0,0,1,.051-.044l.135-.02.061-.126a.063.063,0,0,1,.114,0l.061.126.135.02a.064.064,0,0,1,.051.044.066.066,0,0,1-.016.067l-.1.1.023.138a.066.066,0,0,1-.025.064A.063.063,0,0,1,87.12,157.131Z" transform="translate(-83.881 -154.264)"/><path class="e" d="M87.12,184.55a.061.061,0,0,1-.03-.007l-.121-.065-.121.065a.062.062,0,0,1-.03.007.062.062,0,0,1-.037-.012.066.066,0,0,1-.025-.064l.023-.138-.1-.1a.066.066,0,0,1-.016-.067.064.064,0,0,1,.051-.044l.135-.02.061-.126a.063.063,0,0,1,.114,0l.061.126.135.02a.064.064,0,0,1,.051.044.066.066,0,0,1-.016.067l-.1.1.023.138a.066.066,0,0,1-.025.064A.062.062,0,0,1,87.12,184.55Z" transform="translate(-83.881 -180.553)"/><path class="e" d="M87.12,211.971a.062.062,0,0,1-.03-.007l-.121-.065-.121.065a.062.062,0,0,1-.067,0,.066.066,0,0,1-.025-.064l.023-.138-.1-.1a.066.066,0,0,1-.016-.067.064.064,0,0,1,.051-.044l.135-.02.061-.126a.063.063,0,0,1,.114,0l.061.126.135.02a.064.064,0,0,1,.051.044.066.066,0,0,1-.016.067l-.1.1.023.138a.066.066,0,0,1-.025.064A.062.062,0,0,1,87.12,211.971Z" transform="translate(-83.881 -206.843)"/><path class="e" d="M138.2,116a.062.062,0,0,1-.03-.007l-.121-.065-.121.065a.063.063,0,0,1-.067,0,.066.066,0,0,1-.025-.064l.023-.138-.1-.1a.066.066,0,0,1-.016-.067.064.064,0,0,1,.051-.044l.135-.02.061-.126a.063.063,0,0,1,.114,0l.061.126.135.02a.064.064,0,0,1,.051.044.066.066,0,0,1-.016.067l-.1.1.023.138a.066.066,0,0,1-.025.064A.062.062,0,0,1,138.2,116Z" transform="translate(-132.858 -114.829)"/><path class="e" d="M138.2,143.421a.061.061,0,0,1-.03-.007l-.121-.065-.121.065a.061.061,0,0,1-.03.007.062.062,0,0,1-.037-.012.066.066,0,0,1-.025-.064l.023-.138-.1-.1a.066.066,0,0,1-.016-.067A.064.064,0,0,1,137.8,143l.135-.02.061-.126a.063.063,0,0,1,.114,0l.061.126.135.02a.064.064,0,0,1,.051.044.066.066,0,0,1-.016.067l-.1.1.023.138a.066.066,0,0,1-.025.064A.061.061,0,0,1,138.2,143.421Z" transform="translate(-132.858 -141.119)"/><path class="e" d="M138.2,170.843a.063.063,0,0,1-.03-.007l-.121-.065-.121.065a.062.062,0,0,1-.03.007.063.063,0,0,1-.037-.012.066.066,0,0,1-.025-.064l.023-.138-.1-.1a.066.066,0,0,1-.016-.067.064.064,0,0,1,.051-.044l.135-.02.061-.126a.063.063,0,0,1,.114,0l.061.126.135.02a.064.064,0,0,1,.051.044.066.066,0,0,1-.016.067l-.1.1.023.138a.066.066,0,0,1-.025.064A.062.062,0,0,1,138.2,170.843Z" transform="translate(-132.858 -167.411)"/><path class="e" d="M138.2,198.261a.063.063,0,0,1-.03-.007l-.121-.065-.121.065a.062.062,0,0,1-.067,0,.066.066,0,0,1-.025-.064l.023-.138-.1-.1a.066.066,0,0,1-.016-.067.064.064,0,0,1,.051-.044l.135-.02.061-.126a.063.063,0,0,1,.114,0l.061.126.135.02a.064.064,0,0,1,.051.044.066.066,0,0,1-.016.067l-.1.1.023.138a.066.066,0,0,1-.025.064A.061.061,0,0,1,138.2,198.261Z" transform="translate(-132.858 -193.699)"/><path class="e" d="M120.835,102.289a.061.061,0,0,1-.03-.008l-.121-.065-.121.065a.061.061,0,0,1-.03.008.063.063,0,0,1-.038-.012.066.066,0,0,1-.025-.064l.023-.138-.1-.1a.066.066,0,0,1-.016-.067.064.064,0,0,1,.051-.044l.135-.02.061-.126a.063.063,0,0,1,.114,0l.061.126.135.02a.064.064,0,0,1,.051.044.066.066,0,0,1-.016.067l-.1.1.023.138a.066.066,0,0,1-.025.064A.062.062,0,0,1,120.835,102.289Z" transform="translate(-116.206 -101.683)"/><path class="e" d="M120.835,129.71a.063.063,0,0,1-.03-.007l-.121-.065-.121.065a.062.062,0,0,1-.03.007.063.063,0,0,1-.038-.012.066.066,0,0,1-.025-.064l.023-.138-.1-.1a.066.066,0,0,1-.016-.067.064.064,0,0,1,.051-.044l.135-.02.061-.126a.063.063,0,0,1,.114,0l.061.126.135.02a.064.064,0,0,1,.051.044.066.066,0,0,1-.016.067l-.1.1.023.138a.066.066,0,0,1-.025.064A.063.063,0,0,1,120.835,129.71Z" transform="translate(-116.206 -127.974)"/><path class="e" d="M120.835,157.131a.063.063,0,0,1-.03-.007l-.121-.065-.121.065a.063.063,0,0,1-.03.007.063.063,0,0,1-.038-.012.066.066,0,0,1-.025-.064l.023-.138-.1-.1a.066.066,0,0,1-.016-.067.064.064,0,0,1,.051-.044l.135-.02.061-.126a.063.063,0,0,1,.114,0l.061.126.135.02a.064.064,0,0,1,.051.044.066.066,0,0,1-.016.067l-.1.1.023.138a.066.066,0,0,1-.025.064A.063.063,0,0,1,120.835,157.131Z" transform="translate(-116.206 -154.264)"/><path class="e" d="M120.835,184.55a.062.062,0,0,1-.03-.007l-.121-.065-.121.065a.062.062,0,0,1-.03.007.063.063,0,0,1-.038-.012.066.066,0,0,1-.025-.064l.023-.138-.1-.1a.066.066,0,0,1-.016-.067.064.064,0,0,1,.051-.044l.135-.02.061-.126a.063.063,0,0,1,.114,0l.061.126.135.02a.064.064,0,0,1,.051.044.066.066,0,0,1-.016.067l-.1.1.023.138a.066.066,0,0,1-.025.064A.062.062,0,0,1,120.835,184.55Z" transform="translate(-116.206 -180.553)"/><path class="e" d="M120.835,211.971a.063.063,0,0,1-.03-.007l-.121-.065-.121.065a.063.063,0,0,1-.067,0,.066.066,0,0,1-.025-.064l.023-.138-.1-.1a.066.066,0,0,1-.016-.067.064.064,0,0,1,.051-.044l.135-.02.061-.126a.063.063,0,0,1,.114,0l.061.126.135.02a.064.064,0,0,1,.051.044.066.066,0,0,1-.016.067l-.1.1.023.138a.066.066,0,0,1-.025.064A.062.062,0,0,1,120.835,211.971Z" transform="translate(-116.206 -206.843)"/><path class="e" d="M171.919,116a.062.062,0,0,1-.03-.007l-.121-.065-.121.065a.062.062,0,0,1-.067,0,.065.065,0,0,1-.025-.064l.023-.138-.1-.1a.066.066,0,0,1-.016-.067.064.064,0,0,1,.051-.044l.135-.02.061-.126a.063.063,0,0,1,.114,0l.061.126.135.02a.064.064,0,0,1,.051.044.066.066,0,0,1-.016.067l-.1.1.023.138a.066.066,0,0,1-.025.064A.063.063,0,0,1,171.919,116Z" transform="translate(-165.185 -114.829)"/><path class="e" d="M171.919,143.421a.061.061,0,0,1-.03-.007l-.121-.065-.121.065a.061.061,0,0,1-.03.007.062.062,0,0,1-.037-.012.065.065,0,0,1-.025-.064l.023-.138-.1-.1a.066.066,0,0,1-.016-.067.064.064,0,0,1,.051-.044l.135-.02.061-.126a.063.063,0,0,1,.114,0l.061.126.135.02a.064.064,0,0,1,.051.044.066.066,0,0,1-.016.067l-.1.1.023.138a.066.066,0,0,1-.025.064A.062.062,0,0,1,171.919,143.421Z" transform="translate(-165.185 -141.119)"/><path class="e" d="M171.919,170.843a.063.063,0,0,1-.03-.007l-.121-.065-.121.065a.062.062,0,0,1-.067,0,.065.065,0,0,1-.025-.064l.023-.138-.1-.1a.067.067,0,0,1-.016-.067.064.064,0,0,1,.051-.044l.135-.02.061-.126a.063.063,0,0,1,.114,0l.061.126.135.02a.064.064,0,0,1,.051.044.066.066,0,0,1-.016.067l-.1.1.023.138a.066.066,0,0,1-.025.064A.062.062,0,0,1,171.919,170.843Z" transform="translate(-165.185 -167.411)"/><path class="e" d="M171.919,198.261a.063.063,0,0,1-.03-.007l-.121-.065-.121.065a.062.062,0,0,1-.067,0,.065.065,0,0,1-.025-.064l.023-.138-.1-.1a.066.066,0,0,1-.016-.067.064.064,0,0,1,.051-.044l.135-.02.061-.126a.063.063,0,0,1,.114,0l.061.126.135.02a.064.064,0,0,1,.051.044.066.066,0,0,1-.016.067l-.1.1.023.138a.066.066,0,0,1-.025.064A.062.062,0,0,1,171.919,198.261Z" transform="translate(-165.185 -193.699)"/><path class="e" d="M154.551,102.289a.061.061,0,0,1-.03-.008l-.121-.065-.121.065a.061.061,0,0,1-.03.008.062.062,0,0,1-.037-.012.066.066,0,0,1-.025-.064l.023-.138-.1-.1a.066.066,0,0,1-.016-.067.064.064,0,0,1,.051-.044l.135-.02.061-.126a.063.063,0,0,1,.114,0l.061.126.135.02a.064.064,0,0,1,.051.044.066.066,0,0,1-.016.067l-.1.1.023.138a.066.066,0,0,1-.025.064A.063.063,0,0,1,154.551,102.289Z" transform="translate(-148.533 -101.683)"/><path class="e" d="M154.551,129.71a.063.063,0,0,1-.03-.007l-.121-.065-.121.065a.062.062,0,0,1-.03.007.063.063,0,0,1-.037-.012.066.066,0,0,1-.025-.064l.023-.138-.1-.1a.066.066,0,0,1-.016-.067.064.064,0,0,1,.051-.044l.135-.02.061-.126a.063.063,0,0,1,.114,0l.061.126.135.02a.064.064,0,0,1,.051.044.066.066,0,0,1-.016.067l-.1.1.023.138a.066.066,0,0,1-.025.064A.063.063,0,0,1,154.551,129.71Z" transform="translate(-148.533 -127.974)"/><path class="e" d="M154.551,157.131a.063.063,0,0,1-.03-.007l-.121-.065-.121.065a.063.063,0,0,1-.067,0,.066.066,0,0,1-.025-.064l.023-.138-.1-.1a.066.066,0,0,1-.016-.067.064.064,0,0,1,.051-.044l.135-.02.061-.126a.063.063,0,0,1,.114,0l.061.126.135.02a.064.064,0,0,1,.051.044.066.066,0,0,1-.016.067l-.1.1.023.138a.066.066,0,0,1-.025.064A.063.063,0,0,1,154.551,157.131Z" transform="translate(-148.533 -154.264)"/><path class="e" d="M154.551,184.55a.061.061,0,0,1-.03-.007l-.121-.065-.121.065a.062.062,0,0,1-.03.007.062.062,0,0,1-.037-.012.066.066,0,0,1-.025-.064l.023-.138-.1-.1a.066.066,0,0,1-.016-.067.064.064,0,0,1,.051-.044l.135-.02.061-.126a.063.063,0,0,1,.114,0l.061.126.135.02a.064.064,0,0,1,.051.044.066.066,0,0,1-.016.067l-.1.1.023.138a.066.066,0,0,1-.025.064A.062.062,0,0,1,154.551,184.55Z" transform="translate(-148.533 -180.553)"/><path class="e" d="M154.551,211.971a.062.062,0,0,1-.03-.007l-.121-.065-.121.065a.062.062,0,0,1-.067,0,.066.066,0,0,1-.025-.064l.023-.138-.1-.1a.066.066,0,0,1-.016-.067.064.064,0,0,1,.051-.044l.135-.02.061-.126a.063.063,0,0,1,.114,0l.061.126.135.02a.064.064,0,0,1,.051.044.066.066,0,0,1-.016.067l-.1.1.023.138a.066.066,0,0,1-.025.064A.062.062,0,0,1,154.551,211.971Z" transform="translate(-148.533 -206.843)"/><path class="e" d="M188.265,102.289a.061.061,0,0,1-.03-.008l-.121-.065-.121.065a.062.062,0,0,1-.03.008.063.063,0,0,1-.038-.012.066.066,0,0,1-.025-.064l.023-.138-.1-.1a.066.066,0,0,1-.016-.067.064.064,0,0,1,.051-.044l.135-.02.061-.126a.063.063,0,0,1,.114,0l.061.126.135.02a.064.064,0,0,1,.051.044.066.066,0,0,1-.016.067l-.1.1.023.138a.066.066,0,0,1-.025.064A.062.062,0,0,1,188.265,102.289Z" transform="translate(-180.857 -101.683)"/><path class="e" d="M188.265,129.71a.063.063,0,0,1-.03-.007l-.121-.065-.121.065a.062.062,0,0,1-.03.007.063.063,0,0,1-.038-.012.066.066,0,0,1-.025-.064l.023-.138-.1-.1a.066.066,0,0,1-.016-.067.064.064,0,0,1,.051-.044l.135-.02.061-.126a.063.063,0,0,1,.114,0l.061.126.135.02a.064.064,0,0,1,.051.044.066.066,0,0,1-.016.067l-.1.1.023.138a.066.066,0,0,1-.025.064A.062.062,0,0,1,188.265,129.71Z" transform="translate(-180.857 -127.974)"/><path class="e" d="M188.265,157.131a.063.063,0,0,1-.03-.007l-.121-.065-.121.065a.063.063,0,0,1-.067,0,.066.066,0,0,1-.025-.064l.023-.138-.1-.1a.066.066,0,0,1-.016-.067.064.064,0,0,1,.051-.044l.135-.02.061-.126a.063.063,0,0,1,.114,0l.061.126.135.02a.064.064,0,0,1,.051.044.066.066,0,0,1-.016.067l-.1.1.023.138a.066.066,0,0,1-.025.064A.063.063,0,0,1,188.265,157.131Z" transform="translate(-180.857 -154.264)"/><path class="e" d="M188.265,184.55a.061.061,0,0,1-.03-.007l-.121-.065-.121.065a.062.062,0,0,1-.03.007.063.063,0,0,1-.038-.012.066.066,0,0,1-.025-.064l.023-.138-.1-.1a.066.066,0,0,1-.016-.067.064.064,0,0,1,.051-.044l.135-.02.061-.126a.063.063,0,0,1,.114,0l.061.126.135.02a.064.064,0,0,1,.051.044.066.066,0,0,1-.016.067l-.1.1.023.138a.066.066,0,0,1-.025.064A.062.062,0,0,1,188.265,184.55Z" transform="translate(-180.857 -180.553)"/><path class="e" d="M188.265,211.971a.062.062,0,0,1-.03-.007l-.121-.065-.121.065a.063.063,0,0,1-.067,0,.066.066,0,0,1-.025-.064l.023-.138-.1-.1a.066.066,0,0,1-.016-.067.064.064,0,0,1,.051-.044l.135-.02.061-.126a.063.063,0,0,1,.114,0l.061.126.135.02a.064.064,0,0,1,.051.044.066.066,0,0,1-.016.067l-.1.1.023.138a.066.066,0,0,1-.025.064A.062.062,0,0,1,188.265,211.971Z" transform="translate(-180.857 -206.843)"/></g><rect class="c" width="1.355" height="1.34" transform="translate(0 96.495)"/><path class="c" d="M1.355,393.383v-.9H0v.9a.446.446,0,0,0,.444.444H1.8A.446.446,0,0,1,1.355,393.383Z" transform="translate(0 -293.619)"/></g></svg>