<svg xmlns="http://www.w3.org/2000/svg" width="30" height="19.655" viewBox="0 0 30 19.655"><defs><style>.a{fill:#ff4b55;}.b{fill:#464655;}</style></defs><path class="a" d="M27.753,107.931H2.247A2.247,2.247,0,0,1,0,105.684V90.523a2.247,2.247,0,0,1,2.247-2.247H27.753A2.247,2.247,0,0,1,30,90.523v15.162A2.247,2.247,0,0,1,27.753,107.931Z" transform="translate(0 -88.276)"/><path class="b" d="M164,156.72a.334.334,0,0,0-.467.1l-.85.1.425-.342c.308.024.35-.064.434-.183s.434-.064.434-.064c-.05-.366-.534-.159-.534-.159a.384.384,0,0,0-.459.262l-.609.445-1.339-.379a1.027,1.027,0,0,0,.264-.377c.027-.146-.989-.392-1.3-.7s-.422-.8-.278-.923.267.233.422.53.445.53.634.382-.2-.371-.378-.689.133-.435.278-.4.233.689.578,1.029.656.276.689.064-.569-.473-.691-.654-.154-.534.046-.545.934,1.032,1.556,1.432c.678.435,1.223-.074,1.134-.286s-.5-.127-.978-.244a2.1,2.1,0,0,1-1.112-1.071c-.145-.339-.025-.339.058-.307a5.5,5.5,0,0,0,1.009.819.858.858,0,0,0,1.084-.064c.05-.08.242-.437-.384-.353a1.774,1.774,0,0,1-1.409-.522c-.292-.215-.409-.509-.275-.628s.573.419,1.239.589c.613.156.861-.1.845-.326s-.158-.135-.85-.2a1.9,1.9,0,0,1-1.2-.724c-.025-.04-.017-.262.333-.048a2.83,2.83,0,0,0,1.342.326c.367-.016.442-.485.267-.565s-.217.04-.617.119a2.151,2.151,0,0,1-1.334-.493c-.183-.183.017-.3.108-.286a3.471,3.471,0,0,0,1.226.334.745.745,0,0,0,.742-.628c-.017-.143-.167-.262-.392-.119a1.349,1.349,0,0,1-1.025.231c-.5-.08-.734-.4-.667-.517s.55.087,1.317.008.8-.724.725-.851-.258-.087-.517.143a1.872,1.872,0,0,1-1.15.278c-.392,0-.4-.183-.342-.31s.475-.1,1.059-.27a1.543,1.543,0,0,0,1.009-.9.385.385,0,0,0-.225-.493c-.092,0-.033-.127-.434.421a2.826,2.826,0,0,1-1.451.763.432.432,0,0,0-.192-.183,5.207,5.207,0,0,0-1.563.719,1.2,1.2,0,0,1-.038.82c-.242.463-1.073.174-.847-.557a1.79,1.79,0,0,1,1.532-1.042c.615-.066.647-.287.647-.287s-.646.2-.658-.075a2.472,2.472,0,0,0,.664.009c.5-.042.772-.377.552-.449s-.126.144-.5.311a1.034,1.034,0,0,1-.692.025c.13-.272.679-.133.679-.133.006-.473-.652-.3-.652-.3-.289-.594-1.979.1-1.979.1l.4.307a2.4,2.4,0,0,0-1.178,1.506,2.4,2.4,0,0,0-1.178-1.506l.4-.307s-1.69-.689-1.979-.1c0,0-.658-.169-.652.3,0,0,.549-.139.679.133a1.034,1.034,0,0,1-.692-.025c-.377-.168-.282-.383-.5-.311s.057.407.552.449a2.468,2.468,0,0,0,.664-.009c-.012.275-.658.075-.658.075s.031.222.647.287a1.79,1.79,0,0,1,1.532,1.042c.226.731-.6,1.019-.847.557a1.2,1.2,0,0,1-.038-.82,5.208,5.208,0,0,0-1.563-.719.432.432,0,0,0-.192.183,2.826,2.826,0,0,1-1.451-.763c-.4-.549-.342-.421-.434-.421a.385.385,0,0,0-.225.493,1.543,1.543,0,0,0,1.009.9c.584.175,1,.143,1.059.27s.05.31-.342.31a1.872,1.872,0,0,1-1.15-.278c-.258-.231-.442-.27-.517-.143s-.042.771.725.851,1.251-.127,1.317-.008-.167.437-.667.517a1.349,1.349,0,0,1-1.025-.231c-.225-.143-.375-.024-.392.119a.745.745,0,0,0,.742.628,3.47,3.47,0,0,0,1.226-.334c.092-.016.292.1.108.286a2.152,2.152,0,0,1-1.334.493c-.4-.08-.442-.2-.617-.119s-.1.549.267.565a2.831,2.831,0,0,0,1.342-.326c.35-.215.359.008.333.048a1.9,1.9,0,0,1-1.2.724c-.692.064-.834-.032-.85.2s.232.482.845.326c.667-.17,1.106-.708,1.239-.589s.017.414-.275.628a1.774,1.774,0,0,1-1.409.522c-.626-.084-.434.273-.384.353a.858.858,0,0,0,1.084.064,5.5,5.5,0,0,0,1.009-.819c.083-.032.2-.032.058.307a2.1,2.1,0,0,1-1.112,1.071c-.478.117-.889.032-.978.244s.456.721,1.134.286c.623-.4,1.356-1.442,1.556-1.432s.169.364.046.545-.724.442-.691.654.345.276.689-.064.434-1,.578-1.029.456.085.278.4-.567.541-.378.689.478-.085.634-.382.278-.657.422-.53.033.615-.278.923-1.327.554-1.3.7a1.027,1.027,0,0,0,.264.377l-1.339.379-.609-.445a.384.384,0,0,0-.459-.262s-.484-.207-.534.159c0,0,.35-.056.434.064s.125.207.433.183l.425.342-.85-.1a.334.334,0,0,0-.467-.1s-.367-.111-.459.223a1.221,1.221,0,0,1,.4-.016s.125.27.525.111l.842.04-.475.223s-.6-.183-.575.294a.294.294,0,0,0-.017.382.448.448,0,0,1,.192-.294.418.418,0,0,0,.509-.231l.609-.35.6.278s-.017.31.425.183a.515.515,0,0,1,.192.223s.192-.2-.117-.429c0,0-.075-.27-.442-.167l-.342-.167,1.265-.358c.219.2.455.362.538.335a.793.793,0,0,0,.4-.443c.113-.228.622-1.018.873-1.012s.364.2.3.539a2.133,2.133,0,0,1-.869,1.13c-.317.135-.367.2-.659.175s-.392.1-.325.254.395.26.717.143c.35-.127.484-.3.617-.2s-.142.477-.517.589-.659.04-.6.262.459.239.717.1.55-.541.625-.414a.554.554,0,0,1-.225.628c-.25.175-.535.072-.592.231-.083.231.208.382.434.294a1.334,1.334,0,0,0,.6-.6c.117-.239.333-.032.267.191a.963.963,0,0,1-.489.755l.889,1.3.889-1.3a.964.964,0,0,1-.489-.755c-.067-.223.15-.429.267-.191a1.334,1.334,0,0,0,.6.6c.225.087.517-.064.434-.294-.057-.159-.342-.056-.592-.231a.554.554,0,0,1-.225-.628c.075-.127.367.27.625.414s.659.127.717-.1-.225-.151-.6-.262-.65-.485-.517-.589.267.072.617.2c.322.117.65.016.717-.143s-.033-.278-.325-.254-.342-.04-.659-.175a2.134,2.134,0,0,1-.869-1.13c-.063-.341.05-.533.3-.539s.76.784.873,1.012a.794.794,0,0,0,.4.443c.083.027.319-.136.538-.335l1.265.358-.342.167c-.367-.1-.442.167-.442.167-.308.231-.117.429-.117.429a.516.516,0,0,1,.192-.223c.442.127.425-.183.425-.183l.6-.278.609.35a.418.418,0,0,0,.509.231.447.447,0,0,1,.192.294.294.294,0,0,0-.017-.382c.025-.477-.575-.294-.575-.294l-.475-.223.842-.04c.4.159.525-.111.525-.111a1.221,1.221,0,0,1,.4.016C164.367,156.608,164,156.72,164,156.72Z" transform="translate(-143.164 -144.473)"/></svg>