<svg xmlns="http://www.w3.org/2000/svg" width="30" height="20.309" viewBox="0 0 30 20.309"><defs><style>.a{fill:#2e2f30;}.b{fill:#cc3434;}.c{fill:#f5feff;}.d{fill:#ba2b2b;}.e{fill:#d9e2e1;}.f{fill:#a32323;}.g{fill:#c9d3d1;}.h{fill:#db9c00;}.i{fill:#996a00;}</style></defs><g transform="translate(0.019 -80.01)"><path class="a" d="M0,304.01v3.965a2.8,2.8,0,0,0,2.9,2.8H27.078a2.8,2.8,0,0,0,2.9-2.8V304.01Z" transform="translate(0 -210.461)"/><path class="b" d="M27.078,80.01H2.9a2.8,2.8,0,0,0-2.9,2.8V86.78H29.98V82.815A2.8,2.8,0,0,0,27.078,80.01Z" transform="translate(0 0)"/><rect class="c" width="30" height="6" transform="translate(-0.019 87.164)"/><path d="M323.13,310.78a2.882,2.882,0,0,0,3-2.8V304.01H315.2Z" transform="translate(-296.148 -210.461)"/><path class="d" d="M72.177,80.01H48l8.027,6.77H75.078V82.815A2.8,2.8,0,0,0,72.177,80.01Z" transform="translate(-45.099 0)"/><path class="e" d="M188.22,198.78H199.1v-6.77H180Z" transform="translate(-169.12 -105.23)"/><path class="f" d="M72.177,80.01H48l22.388,6.77h4.69V82.815A2.8,2.8,0,0,0,72.177,80.01Z" transform="translate(-45.099 0)"/><path class="g" d="M419.332,193.364V192.01H414.4Z" transform="translate(-389.353 -105.23)"/><path d="M29.98,368.058a2.754,2.754,0,0,1-2.9,2.853H2.9a2.879,2.879,0,0,1-2.9-2.9" transform="translate(0 -270.592)"/><g transform="translate(12.572 86.828)"><path class="h" d="M212.835,198.516c-.048-.677-.048-1.354-.1-2.031a5.254,5.254,0,0,0-.048-.87,12.777,12.777,0,0,0-.1-1.4.4.4,0,0,0-.387-.145c-.387.048-.725.435-1.112.387a1.548,1.548,0,0,1-.242-.629v-.387a.6.6,0,0,0-.193-.532,1.155,1.155,0,0,0-.435-.1c-.048,0-.1.048-.145.1-.193-.1-.484-.145-.435.145.193-.1.387.145.387.339a1.284,1.284,0,0,1-.29,1.015c-.435,0-.725-.338-1.112-.387-.339-.048-.435.193-.435.532a5.85,5.85,0,0,1-.048.919,5.257,5.257,0,0,1-.048.87v.484c-.048.29,0,.677-.048.967a2.973,2.973,0,0,1-.048.677,2.322,2.322,0,0,1,.58,0c0,.048.048.048.048.145-.145.048-.145.145-.29.193.1.048.1.242.193.29,0,.1,0,.145.048.145.1.048.387.1.532.145a12.4,12.4,0,0,0,3-.048c.193-.048.29-.048.29-.242.1-.048.1-.193.193-.29a.667.667,0,0,1-.193-.145c-.048-.048-.048,0-.1-.048,0-.048,0-.1.048-.1A1.612,1.612,0,0,1,212.835,198.516Zm-4.062-.1c-.048.048-.1.048-.145.1-.048-.1.048-.193.145-.193Zm2.466.193a2.331,2.331,0,0,1-.58,0,.147.147,0,0,1,0-.193h.58c.242-.048.532-.1.725-.145.048,0,.048.1.048.145a2.043,2.043,0,0,1-.58.145C211.433,198.371,211.24,198.419,211.24,198.613Zm.193,0-.1.1a.15.15,0,0,0-.1-.048C211.24,198.467,211.433,198.419,211.433,198.613Zm-1.354-1.692c.048.048.1.1.145.1,0,.1-.048.193-.048.29C210.128,197.21,209.934,197.017,210.079,196.92Zm-.242.242a2.353,2.353,0,0,1-.048-.58l.29.29A1.282,1.282,0,0,1,209.837,197.162Zm.387,1.112c.048-.242.048-.532.1-.774a3.659,3.659,0,0,1-.048.725c0,.1.1.1.1.193l.145-.145c0-.242-.048-.532-.048-.774a3.731,3.731,0,0,1,.1.725c.048.048.1.048.1.1.048,0,.048-.048.1-.048.048.048,0,.1.048.145h-.193c-.048,0-.048.048-.1.048h-.29c-.048-.1-.193-.048-.29-.048,0-.048,0-.1.048-.1,0-.048.048.048.1.048C210.128,198.322,210.176,198.322,210.224,198.274Zm.774-1.112c-.1-.048-.145-.193-.242-.29l.29-.29h0C211.046,196.775,211,196.968,211,197.162Zm.193-.87h0c.048.242.242.484.1.725-.1-.048-.145-.193-.242-.242A.817.817,0,0,1,211.191,196.292Zm-.387.725c-.048.1-.1.242-.145.339-.048-.1-.048-.193-.1-.29.048-.048.1-.048.145-.145A.1.1,0,0,1,210.8,197.017Zm-.484,1.741c-.048,0-.1-.048-.145-.1,0-.048.048-.048.048-.145C210.321,198.516,210.369,198.661,210.321,198.758Zm0-.242h.193c-.048.048-.048.145-.145.1C210.369,198.564,210.321,198.564,210.321,198.516Zm.242,0c.048,0,.048.1.1.145,0,.048-.1.048-.1.1C210.466,198.709,210.514,198.564,210.563,198.516Zm.58-.242c.048,0,.1.1.1.145h-.145C211.095,198.371,211.143,198.322,211.143,198.274Zm.242.1a.251.251,0,0,1,.1-.193c.048.048.1.1.1.145C211.53,198.322,211.433,198.371,211.385,198.371Zm.242-.048c-.048-.048-.1-.145-.193-.242a.687.687,0,0,0-.1.29h-.048a.367.367,0,0,1-.1-.193c-.048.048-.048.145-.1.242h-.145a.674.674,0,0,1,0-.532.483.483,0,0,1,.193.242c.048-.1.048-.193.1-.29a.483.483,0,0,1,.193.242c.048-.1.1-.242.145-.338h.048l.145.58Zm-.193-.338c-.1-.048-.1-.145-.193-.242-.048.1-.048.193-.1.29-.1-.048-.145-.193-.242-.242a.613.613,0,0,0-.048.29c-.048-.145-.1-.338-.145-.532.048,0,.145.145.193.193.048-.145.048-.29.1-.387.1.048.1.145.145.193l.145-.29c.1.048.145.145.242.193C211.627,197.694,211.482,197.839,211.433,197.984Zm-.145-.725c-.048.1-.048.145-.1.242-.1-.048-.1-.145-.145-.193a1.155,1.155,0,0,0-.1.435c-.1-.1-.242-.145-.242-.29,0-.048.048-.145.048-.193.048-.048.048-.1.1-.193.048.048.1.145.193.193a1.337,1.337,0,0,1,.048-.435c.1.048.145.145.242.242a.178.178,0,0,0,.048-.145,1.1,1.1,0,0,1,.145.532C211.433,197.4,211.385,197.307,211.288,197.259Zm.1-.725a4.66,4.66,0,0,1,0-.822h.048c0,.484.048.967.048,1.451A1.428,1.428,0,0,1,211.385,196.533Zm-.967.58a2.264,2.264,0,0,1-1.015-2.079,1.587,1.587,0,0,0,1.015-.29l.29.145a1.615,1.615,0,0,0,.725.145A2.265,2.265,0,0,1,210.418,197.114Zm-.629-.338a.583.583,0,0,1-.242.242c-.193-.193.048-.484.048-.725A.561.561,0,0,1,209.789,196.775Zm-.387-1.064h0c.1.1.048.338.048.532a2.4,2.4,0,0,1-.1.87C209.354,196.678,209.4,196.146,209.4,195.711Zm.1,1.209c0,.048.048.1.048.145l.242-.242a1.2,1.2,0,0,1,.048.435c.048-.048.1-.145.193-.193.048.145.1.242.145.387-.048.145-.145.193-.242.29l-.145-.435c-.1.048-.048.193-.145.193-.048-.1-.048-.145-.1-.242-.1.048-.145.145-.242.193,0-.048.048-.1.048-.145C209.4,197.162,209.4,197.017,209.5,196.92Zm0,.387a1.609,1.609,0,0,1,.145.29c.048-.048.048-.145.145-.193a3.336,3.336,0,0,0,.145.387l.193-.193a1.719,1.719,0,0,0-.1.484c-.048-.048-.048-.193-.048-.29-.1.048-.145.193-.242.242a.688.688,0,0,1-.1-.29c-.1.048-.1.145-.193.242-.048-.145-.193-.29-.145-.483C209.4,197.452,209.451,197.355,209.5,197.307Zm-.1.725a.85.85,0,0,1,.193-.242.687.687,0,0,1,.1.29c.1-.048.145-.193.193-.242a.677.677,0,0,1,0,.532h-.145c-.048-.048-.048-.145-.1-.242-.048.048-.1.145-.145.193h-.048a.687.687,0,0,1-.1-.29c-.048.048-.1.145-.145.193a.178.178,0,0,1-.145-.048,4.492,4.492,0,0,1,.193-.629A3.009,3.009,0,0,0,209.4,198.032Zm.339.387H209.6c0-.048.048-.1.048-.145C209.692,198.274,209.692,198.371,209.741,198.419Zm-.29-.048c-.1,0-.145-.048-.193-.048,0-.1.1-.1.1-.193C209.4,198.226,209.451,198.274,209.451,198.371Zm0,.048a3.91,3.91,0,0,0,.725.048c.048.048,0,.1,0,.193a2.329,2.329,0,0,1-.58,0c0-.193-.145-.242-.145-.048-.193-.048-.484-.048-.484-.145v-.145c0-.048-.048-.048.048-.048A4.569,4.569,0,0,0,209.451,198.419Zm.1.193a.047.047,0,0,0-.048.048c-.1,0-.1-.242.048-.193Zm2.514-.29c.1,0,.145.1.145.193-.048,0-.1-.048-.145-.048Zm-.29-.048c-.1-.339-.193-.629-.29-.967.1.048.145.145.193.193,0-.822-.1-1.692-.1-2.563a.749.749,0,0,1-.387.1,1.4,1.4,0,0,1-.822-.29,1.9,1.9,0,0,1-.629.29.594.594,0,0,1-.58-.1c-.048.87-.1,1.692-.1,2.563.1-.048.145-.145.242-.193-.1.338-.193.725-.29,1.015-.193-.048-.435-.193-.484.145h-.387c.048,0,.048-.1.145-.193.048-1.306.1-2.563.145-3.917a.369.369,0,0,0-.242.1c0-.193.1-.387.29-.387.435-.048.774.387,1.209.387,0,.048-.048.048-.1.1.1,0,.242,0,.29-.048,0,.048-.048.1-.1.145a.432.432,0,0,0,.387-.193l.145.145.145-.145a.613.613,0,0,0,.435.193c0-.048-.1-.1-.1-.145a.719.719,0,0,0,.29.048c0-.048-.1-.048-.1-.1.484,0,.725-.435,1.209-.387.193,0,.29.145.29.387-.1-.048-.145-.1-.242-.1.048,1.064.1,2.369.145,3.433,0,.145-.048.338,0,.435s.193.145.242.242h-.484C212.255,198.274,212.013,198.226,211.772,198.274Z" transform="translate(-208 -192.81)"/><g transform="translate(0.242 0)"><path class="i" d="M230.031,225.1a1.4,1.4,0,0,1-.822-.29,1.9,1.9,0,0,1-.629.29.594.594,0,0,1-.58-.1v.193l.242.193v-.242a1.587,1.587,0,0,0,1.015-.29l.29.145a1.615,1.615,0,0,0,.725.145,2.565,2.565,0,0,1-.484,1.547h.048l.048-.048h0v.1h0a.549.549,0,0,1,.145-.387h.048c0,.193.145.435.1.629h0v0l.048.048a1.2,1.2,0,0,1-.048-.435,4.66,4.66,0,0,1,0-.822h.048c0,.435.048.919.048,1.354l.242.193c0-.774-.048-1.547-.1-2.321A.749.749,0,0,1,230.031,225.1Z" transform="translate(-227.033 -222.876)"/><path class="i" d="M216.5,196.485a5.257,5.257,0,0,0-.048-.87,12.777,12.777,0,0,0-.1-1.4.4.4,0,0,0-.387-.145c-.387.048-.725.435-1.112.387a1.547,1.547,0,0,1-.242-.629v-.387a.6.6,0,0,0-.193-.532,1.155,1.155,0,0,0-.435-.1c-.048,0-.1.048-.145.1-.193-.1-.484-.145-.435.145.193-.1.387.145.387.338a1.284,1.284,0,0,1-.29,1.015c-.435,0-.725-.338-1.112-.387-.242,0-.338.1-.387.242h0a.327.327,0,0,1,.29-.193c.435-.048.774.387,1.209.387,0,.048-.048.048-.1.1.1,0,.242,0,.29-.048,0,.048-.048.1-.1.145a.432.432,0,0,0,.387-.193l.145.145.145-.145a.613.613,0,0,0,.435.193c0-.048-.1-.1-.1-.145a.719.719,0,0,0,.29.048c0-.048-.1-.048-.1-.1.484,0,.725-.435,1.209-.387.193,0,.29.145.29.387-.1-.048-.145-.1-.242-.1.048,1.064.1,2.369.145,3.433v.145l.29.242A9.887,9.887,0,0,0,216.5,196.485Z" transform="translate(-212 -192.81)"/><path class="i" d="M213.745,218.555v-.145a.178.178,0,0,0-.145.048Z" transform="translate(-213.503 -216.863)"/></g><path class="h" d="M214.545,219.21c-.048,1.257-.1,2.514-.145,3.723.1-.048.193-.193.29-.242.048-1.16.1-2.128.145-3.24A1.282,1.282,0,0,0,214.545,219.21Z" transform="translate(-214.013 -217.614)"/><path class="i" d="M216.8,219.355l.29.242v-.145a1.282,1.282,0,0,0-.29-.242Z" transform="translate(-216.268 -217.614)"/><path class="h" d="M274.69,219.21c-.048.1-.242.145-.29.242v.435c.1.87.048,1.837.1,2.756l.145.145c.048.048.1.145.145.1C274.787,221.724,274.739,220.322,274.69,219.21Z" transform="translate(-270.387 -217.614)"/><path class="i" d="M274.69,219.21c-.048.1-.242.145-.29.242v.435c.048.774.048,1.644.1,2.514l.29.242C274.787,221.531,274.739,220.274,274.69,219.21Z" transform="translate(-270.387 -217.614)"/><path class="h" d="M220.8,227.1c.048-.1.193-.145.242-.242s0-.242,0-.387c.048-.725.1-1.6.1-2.273-.1-.048-.145-.145-.242-.193C220.9,225.025,220.848,226.089,220.8,227.1Z" transform="translate(-220.026 -222.124)"/><path class="i" d="M222.4,224.155l.242.193V224.2c-.1-.048-.145-.145-.242-.193C222.448,224.058,222.4,224.107,222.4,224.155Z" transform="translate(-221.53 -222.124)"/><path class="h" d="M269.6,224.955c.048.87.048,1.789.1,2.659l.193.193.048.048c-.048-1.015-.1-2.128-.145-3.046C269.745,224.858,269.648,224.907,269.6,224.955Z" transform="translate(-265.877 -222.876)"/><path class="i" d="M269.793,224.01c-.048.048-.145.1-.193.193.048.822.048,1.644.1,2.466l.242.193C269.89,225.9,269.842,224.88,269.793,224.01Z" transform="translate(-265.877 -222.124)"/><path class="h" d="M232,225.9a2.3,2.3,0,0,0,.967,1.934,2.161,2.161,0,0,0,.919-1.934,1.309,1.309,0,0,1-.919-.29A1.444,1.444,0,0,1,232,225.9Z" transform="translate(-230.549 -223.627)"/><path class="i" d="M232,225.9c0,.1.048.145.048.242l1.4,1.209a2.35,2.35,0,0,0,.435-1.451,1.309,1.309,0,0,1-.919-.29A1.444,1.444,0,0,1,232,225.9Z" transform="translate(-230.549 -223.627)"/><g transform="translate(0.87 5.529)"><path class="h" d="M222.4,284.316c.048,0,.1.048.145.048,0-.1-.1-.1-.145-.048Z" transform="translate(-222.4 -284.285)"/><path class="h" d="M271.2,284.365c.048,0,.1-.048.145-.048C271.345,284.268,271.2,284.268,271.2,284.365Z" transform="translate(-268.25 -284.285)"/><path class="h" d="M226.593,285.658c-.048-.048-.1-.048-.193-.048A.29.29,0,0,0,226.593,285.658Z" transform="translate(-226.158 -285.53)"/><path class="h" d="M266.4,285.658c.048,0,.193,0,.193-.048A.5.5,0,0,0,266.4,285.658Z" transform="translate(-263.741 -285.53)"/><path class="h" d="M257.6,286.883h.193C257.793,286.786,257.648,286.786,257.6,286.883Z" transform="translate(-255.472 -286.657)"/><path class="h" d="M235.393,287.022c-.048,0-.193-.048-.193.048C235.248,287.022,235.393,287.07,235.393,287.022Z" transform="translate(-234.426 -286.845)"/><path class="h" d="M240.193,287.21c-.048,0-.193,0-.193.048A.291.291,0,0,0,240.193,287.21Z" transform="translate(-238.936 -287.033)"/><path class="h" d="M252.8,287.516a.366.366,0,0,1,.193.048C252.993,287.468,252.848,287.468,252.8,287.516Z" transform="translate(-250.963 -287.291)"/></g><g transform="translate(0.774 5.803)"><path class="c" d="M263.812,289.1c-.145,0-.1-.242-.193-.29a.178.178,0,0,0-.145.048c.145-.1.193.145.193.29-.048,0-.048-.048-.1-.048-.1,0-.1.1-.193.1,0-.048-.048-.048-.145-.048-.048-.048,0-.145-.048-.145,0,.048.048.1.048.145-.048.048-.048.048-.048.1h-.1c0-.048,0-.1-.048-.1,0,.048-.1.048-.048.1a.15.15,0,0,1,.1.048c0,.048-.048.048-.048.1.048,0,.048-.048.1-.1.1,0,.193-.048.242,0,.048,0,.048-.1.1-.1.1.1.193-.048.242-.048h.145V289.1C263.812,289.052,263.86,289.1,263.812,289.1Zm-.822.145c0-.048,0-.048.048-.048v.048S263.038,289.294,262.99,289.245Zm.242,0v-.1c.048,0,.048.048,0,.1Zm.145-.048h-.048C263.231,289.148,263.376,289.1,263.376,289.2Zm-.048.048a.047.047,0,0,1,.048-.048C263.376,289.245,263.328,289.294,263.328,289.245Zm.145-.048c0-.1.1-.1.145-.048C263.618,289.2,263.521,289.2,263.473,289.2Z" transform="translate(-260.427 -288.81)"/><path class="c" d="M221.7,289.658h0c-.048-.048-.048-.048-.1-.048v.048Z" transform="translate(-221.552 -289.562)"/><path class="c" d="M220.9,291.21h-.1c.048.048.048.048.1,0Z" transform="translate(-220.8 -291.065)"/><path class="c" d="M253.648,292.858v-.048H253.6a.047.047,0,0,0,.048.048Z" transform="translate(-251.617 -292.568)"/><path class="c" d="M229.235,293.148c-.048-.048-.048-.1-.1-.145.1-.048.048-.193,0-.193s-.048.048-.1.048c0,.048.048.048.048.1-.048,0-.145.048-.193,0,0-.048,0-.1-.048-.1,0,.048.048.145-.048.193.048,0,.048-.048.1-.048.048.048.145,0,.193,0,.1.048.1.193.145.145.1,0,.1-.242.048-.339C229.284,292.907,229.38,293.148,229.235,293.148Zm-.193-.193c0-.145.193,0,.048.048Z" transform="translate(-228.316 -292.568)"/><path class="c" d="M238.866,293.1c0-.1.048-.242,0-.29C238.866,292.858,238.818,293,238.866,293.1Z" transform="translate(-237.754 -292.568)"/><path class="c" d="M254.642,292.155c-.048.048.048.048,0,.1,0,.048-.048.048-.1.048-.1-.048,0-.242-.048-.29,0,.048.048.145,0,.242-.048,0-.1,0-.1.048h.29S254.738,292.155,254.642,292.155Z" transform="translate(-252.369 -291.817)"/><path class="c" d="M253.932,294.076c0-.048-.048,0-.048,0C253.787,294.076,253.932,294.124,253.932,294.076Z" transform="translate(-251.852 -293.738)"/><path class="c" d="M260.59,294.41c-.048.048.048.1.048.145s-.048.048-.048.1C260.638,294.652,260.686,294.458,260.59,294.41Zm.048.145a.047.047,0,0,1-.048-.048C260.59,294.458,260.638,294.507,260.638,294.555Z" transform="translate(-258.172 -294.072)"/><path class="c" d="M275.2,294.876c.048,0,.1.048.1,0C275.248,294.876,275.2,294.828,275.2,294.876Z" transform="translate(-271.912 -294.489)"/><path class="c" d="M240.629,295.355h-.048c0-.048,0-.1-.048-.1a.425.425,0,0,1-.339-.048c0,.048.048.1-.048.145-.048,0-.048-.1-.1-.1-.048.048.048.1.048.1,0,.048-.048.1-.1.145.048,0,.1-.1.145-.145h.29c0,.048.048.048.1.1.048,0,.048-.1.048-.1.1,0,.145,0,.193-.048C240.774,295.21,240.629,295.258,240.629,295.355Zm-.145.1c-.048,0-.048-.048-.048-.1h-.193c0-.193.193,0,.29-.1C240.58,295.355,240.532,295.4,240.484,295.452Zm.193-.1c-.048-.048.048-.1.048-.048S240.725,295.355,240.677,295.355Z" transform="translate(-238.839 -294.823)"/><path class="c" d="M221.648,296.524v-.048s0-.048-.048,0C221.6,296.428,221.6,296.476,221.648,296.524Z" transform="translate(-221.552 -295.992)"/><path class="c" d="M223.2,296.547c.048.048.1,0,.1-.048C223.248,296.45,223.2,296.5,223.2,296.547Z" transform="translate(-223.055 -296.015)"/><path class="c" d="M225.39,296.742h.048C225.438,296.645,225.341,296.694,225.39,296.742Z" transform="translate(-225.099 -296.21)"/><path class="c" d="M255.436,298.41c-.048,0-.048.1,0,.1Z" transform="translate(-253.309 -297.83)"/><path class="c" d="M256.8,298.567a.047.047,0,0,0,.048.048C256.945,298.567,256.8,298.47,256.8,298.567Z" transform="translate(-254.624 -297.938)"/><path class="c" d="M221.987,289.852c.1.145-.1.193-.145.1,0-.048.048-.048.048-.1-.048,0-.048.1-.048.1-.193,0-.048-.242-.048-.339h-.048a.266.266,0,0,1-.145.242c0,.1.1.1.193.145a.291.291,0,0,0,.193.048C221.987,289.948,222.084,289.852,221.987,289.852Z" transform="translate(-221.552 -289.562)"/></g></g></g></svg>