<svg xmlns="http://www.w3.org/2000/svg" width="30.077" height="20.375" viewBox="0 0 30.077 20.375"><defs><style>.a{fill:#fff;}.b{fill:#3757a6;}.c{fill:#ef4f4e;}.d{fill:#dd4545;}.e{fill:#e2f2f1;}.f{fill:#2a4d93;}.g{fill:#cc3e3e;}.h{fill:#d6eae8;}.i{fill:#133970;}</style></defs><g transform="translate(0 -80)"><rect class="a" width="10" height="20" transform="translate(10.039 80.188)"/><path class="b" d="M9.7,80H2.911A2.808,2.808,0,0,0,0,82.814V97.561a2.808,2.808,0,0,0,2.911,2.814H9.7Z" transform="translate(0 0)"/><path class="c" d="M342.792,80H336v20.375h6.792a2.808,2.808,0,0,0,2.911-2.814V82.814A2.808,2.808,0,0,0,342.792,80Z" transform="translate(-315.625 0)"/><path class="d" d="M342.792,80H336V94.6l6.695,5.773a2.891,2.891,0,0,0,3.008-2.814V82.814A2.808,2.808,0,0,0,342.792,80Z" transform="translate(-315.625 0)"/><path class="e" d="M170.673,94.6V80H160v5.773Z" transform="translate(-150.298 0)"/><path class="f" d="M54.792,80H48l6.792,5.773Z" transform="translate(-45.089 0)"/><path class="g" d="M336,370.911h6.792A2.722,2.722,0,0,0,345.7,368H336Z" transform="translate(-315.625 -270.536)"/><rect class="h" width="10" height="2" transform="translate(10.039 98.188)"/><path class="i" d="M0,368a2.722,2.722,0,0,0,2.911,2.911H9.7V368Z" transform="translate(0 -270.536)"/><path class="g" d="M342.792,80H336v5.142l9.7,3.008V82.814A2.808,2.808,0,0,0,342.792,80Z" transform="translate(-315.625 0)"/><path class="h" d="M170.673,85.142V80H160v1.989Z" transform="translate(-150.298 0)"/><path class="i" d="M54.792,80H48l6.792,1.989Z" transform="translate(-45.089 0)"/></g></svg>