<svg xmlns="http://www.w3.org/2000/svg" width="30.402" height="20.855" viewBox="0 0 30.402 20.855"><defs><style>.a{fill:#d11f3e;}.b{fill:#fcd73e;}.c{fill:#e5bf23;}.d{fill:#ba0f34;}.e{fill:#d3ad0d;}.f{fill:#a50a33;}.g{fill:#1d4f95;}.h{fill:#083a75;}.i{fill:#fff;}.j{fill:#d7dce2;}</style></defs><g transform="translate(0 -78)"><path class="a" d="M0,332.4v2.3a2.976,2.976,0,0,0,2.644,2.986H27.758A2.98,2.98,0,0,0,30.4,334.7v-2.3Z" transform="translate(0 -238.832)"/><path class="b" d="M27.415,78H2.937A2.957,2.957,0,0,0,0,80.986v7.294H30.353V80.986A2.957,2.957,0,0,0,27.415,78Z"/><path class="c" d="M48,78H72.478a2.957,2.957,0,0,1,2.937,2.986V95.869a2.957,2.957,0,0,1-2.937,2.986" transform="translate(-45.063)"/><path class="d" d="M352.617,337.687h.343a1.448,1.448,0,0,0,.49-.1h.049a1.739,1.739,0,0,0,.441-.2.048.048,0,0,0,.049-.049c.147-.1.245-.147.392-.245l.049-.049c.1-.1.245-.2.343-.294l.049-.049a2.716,2.716,0,0,0,.294-.392l.049-.049a1.737,1.737,0,0,0,.2-.441v-.049c.049-.147.1-.294.147-.49v-.049a1.836,1.836,0,0,0,.049-.539v-2.3H346.4Z" transform="translate(-325.202 -238.832)"/><path class="e" d="M48,78H72.478a2.957,2.957,0,0,1,2.937,2.986V86.42" transform="translate(-45.063)"/><path class="f" d="M30.353,370a2.957,2.957,0,0,1-2.937,2.986H2.937A2.957,2.957,0,0,1,0,370" transform="translate(0 -274.131)"/><rect class="g" width="30.353" height="5.287" transform="translate(0 88.281)"/><path class="h" d="M251.768,251.287h9.155V246H245.6Z" transform="translate(-230.571 -157.719)"/><g transform="translate(10.036 82.216)"><path class="i" d="M171.592,315.6h0a.506.506,0,0,1-.2.049,1.341,1.341,0,0,1-.2.343.651.651,0,0,1,.343-.147.294.294,0,0,1,.049-.2h0Z" transform="translate(-170.759 -305.276)"/><path class="i" d="M187.592,333.2h0a.506.506,0,0,1-.2.049,1.342,1.342,0,0,1-.2.343.651.651,0,0,1,.343-.147.294.294,0,0,1,.049-.2h0C187.641,333.249,187.641,333.2,187.592,333.2Z" transform="translate(-185.78 -321.799)"/><path class="i" d="M317.8,315.649a.214.214,0,0,1-.147-.049h0l-.049.049h0c.049.049.049.1.049.2a.651.651,0,0,1,.343.147A1.342,1.342,0,0,1,317.8,315.649Z" transform="translate(-308.2 -305.276)"/><path class="i" d="M301.8,333.249a.214.214,0,0,1-.147-.049h0l-.049.049h0c.049.049.049.1.049.2a1.776,1.776,0,0,1,.343.147A.616.616,0,0,1,301.8,333.249Z" transform="translate(-293.18 -321.799)"/><path class="i" d="M216.849,205.2l-.049.049C216.8,205.2,216.8,205.2,216.849,205.2Z" transform="translate(-213.569 -201.632)"/><path class="i" d="M216,210Z" transform="translate(-212.818 -206.138)"/><path class="i" d="M216.8,198.8Z" transform="translate(-213.569 -195.623)"/><path class="i" d="M207.666,204.4Z" transform="translate(-204.974 -200.881)"/><path class="i" d="M263.2,339.6Z" transform="translate(-257.129 -327.807)"/><path class="i" d="M181.6,179.6a1.127,1.127,0,0,1,.147.441c.1,0,.2,0,.2.1h0l.049-.049h0a.506.506,0,0,1-.049-.2C181.992,179.8,181.7,179.7,181.6,179.6Z" transform="translate(-180.523 -177.598)"/><path class="i" d="M173.987,150.751s-.1.1-.147.1c-.1,0-.147-.049-.147-.1v-.1a.57.57,0,0,1,.343-.1,1.746,1.746,0,0,1,.294-.636,1.626,1.626,0,0,1-.636.343c0,.147-.049.294-.1.294h-.049c-.049-.049-.2-.147-.245-.1s.049.2.1.245h0v.049h-.049v.049c-.049,0-.049,0-.1.049h0a.2.2,0,0,0-.1-.2.173.173,0,0,0-.2.049v.1h0c-.049,0-.147,0-.1.1l.049.1s.049-.1.245-.1h0a.338.338,0,0,0-.245.147l.049.049h.049l-.441.441v-.343h.049V151h.147c0-.147,0-.294-.1-.294-.049,0-.049,0-.049.049v-.1h0c0-.1-.049-.245-.049-.294s-.049-.294-.049-.49c0-.1-.049-.245-.049-.343l.049-.049a.536.536,0,0,0,.392,0h.049a.37.37,0,0,1-.392-.049h0a.371.371,0,0,1,.2-.1,4.5,4.5,0,0,1,.147-.441,2.182,2.182,0,0,1-.392.245.506.506,0,0,1-.049.2h0l-.049-.049a.441.441,0,0,1-.049-.245h0c.2.049.2.147.2.245,0-.049-.049-.049-.1-.049,0,0-.147-.049-.147.1v.049c-.049,0-.1.049-.049.1l.049.1.049.049h.049l-.441.441v-.049l-.147-.294h0c0,.049.049.049.049.1.049.1.049.2.1.294l-.147.147a2.907,2.907,0,0,0-.2-.392c-.049-.1-.049-.147-.1-.2h0a3.4,3.4,0,0,1,.245.636l-.049.049a4.046,4.046,0,0,0-.343-.636h0c.1.245.2.441.294.685l-.1.1c-.147-.294-.343-.587-.49-.881h0c.1.2.2.392.294.636l.147.294h0l-.049.049h0a3.651,3.651,0,0,0-.343-.587,2.69,2.69,0,0,0-.343-.441h0a4.893,4.893,0,0,1,.392.685l.2.441h0l-.1.1c-.049-.1-.1-.147-.147-.245-.1-.147-.245-.294-.343-.441h0l.441.734h0l-.1.1c0-.049-.049-.049-.049-.1-.049-.049-.049-.1-.1-.1h0a1.069,1.069,0,0,1,.147.245l-.147.147a3.125,3.125,0,0,0-.832-.93h0l-.049-.049h0c-.049,0-.147-.1-.294-.147v-.049h0a.7.7,0,0,0-.1-.147.18.18,0,0,0-.147-.049c-.049-.049-.049-.049-.049-.1v-.1h0a.152.152,0,0,0,.1-.049.532.532,0,0,0,.049-.245l.049.049a.493.493,0,0,0,.049-.147h0v-.1h0v-.147c.1.147.147.147.2.147s0-.147,0-.2a.382.382,0,0,0,.2.147c.049,0,.049-.147.049-.2.1.1.2.147.245.1.049,0,0-.1,0-.2.147.1.245.049.245,0a.7.7,0,0,0-.1-.2c.147.1.294.1.343.049.049,0-.049-.147-.1-.2a.846.846,0,0,0,.343.1.371.371,0,0,0-.1-.2c.441.294.441.147.441.147l-.1-.147c.2.049.343.1.392.049a.152.152,0,0,0-.049-.1c.343.1.441.049.441.049.049,0-.049-.1-.1-.147a1.577,1.577,0,0,1,.294.1c.245,0,.2-.049.049-.147a2.088,2.088,0,0,0,.441.1c0-.049-.147-.147-.245-.2a1.127,1.127,0,0,0,.441.147c.2.049.1-.049.1-.049l-.245-.147c.1.049.2.049.245.1.2.049.1-.049.1-.049l-.343-.2h0a2.644,2.644,0,0,0,.587.2.171.171,0,0,0-.1-.049h0a.152.152,0,0,0,.1.049H173.5a2.9,2.9,0,0,0-.294-.2c-.049,0-.049-.049-.1-.049-.147-.049-.832-.392-.93-.441a3.606,3.606,0,0,0-.685-.2c-.147,0-.734-.1-1.224-.147-.392-.049-.392.245-.392.343v.049s-.1.1-.147.1a.152.152,0,0,1-.1.049,2.014,2.014,0,0,0-.392.147.171.171,0,0,0-.1-.049c-.1,0-.245-.049-.49-.049-.2,0-.294.1-.294.147h-.049a2.9,2.9,0,0,0-.294-.2h-.049v-.2c0-.049,0-.1-.049-.1v-.049c0-.1-.049-.245-.2-.245h-.587a1.4,1.4,0,0,0-.685,0,7.139,7.139,0,0,0-.93.343c-.049,0-.1.049-.147.049a.18.18,0,0,1-.147.049h.049a7.374,7.374,0,0,0-1.028.587.379.379,0,0,0,.147-.049.37.37,0,0,0,.2-.049s0,.049.147.049h.2a.048.048,0,0,0-.049.049c0,.049.2,0,.539-.049-.1.049-.147.1.1.147,0,0,.147-.049.343-.1-.049.049-.1.1-.1.147a.573.573,0,0,0,.49-.049c-.049.049-.147.1-.1.147a.976.976,0,0,0,.392-.1l-.1.147s.049.147.49-.1c-.049.1-.147.2-.1.2,0,.049.147.049.343-.049-.049.1-.147.2-.1.2.049.049.2.049.343-.049l-.1.2s.147.1.245,0c-.049.1-.049.147,0,.2a.316.316,0,0,0,.245-.1v.2c.049,0,.147-.049.245-.2v.294c.049,0,.1.049.2-.147v.2h.049a1.227,1.227,0,0,0-.2.343,1.341,1.341,0,0,0-.2.343c-.049.1-.1.147-.049.147h0a.18.18,0,0,0-.049.147c-.049.147-.147.294-.1.343a3.7,3.7,0,0,0-.539.685l-.147-.147-.049-.049c.049-.049.1-.1.147-.1h-.245l-.049-.049c.049-.049.1-.049.1-.1h.049v.049h0l.049.049h0c.049,0,.049,0,.049-.049v-.049h0c.049-.049-.049-.1-.049-.049,0,0-.049,0,0,.049h-.049a.676.676,0,0,1,.2-.147c-.049,0-.049,0-.1.049h-.147a.466.466,0,0,1,.343-.1c.1,0,.147,0,.2-.049a.371.371,0,0,0,.2-.1,2.12,2.12,0,0,1-.245-.049h0c.049-.049-.049-.1-.049-.049h-.1l.049-.049a.048.048,0,0,0,.049-.049c.147-.049.343,0,.441-.1-.049,0-.1.049-.2.049h-.147a.489.489,0,0,0,.2-.245c-.049.049-.1.049-.2.1-.049.049-.1.1-.1.147h0v-.2c-.049.049-.049.1-.1.147a.294.294,0,0,1-.049.2h-.049v-.049h0c.1,0,0-.049,0,0,0,0-.049,0,0,.049v.049h0l.049.049-.049.049c-.049.049-.147.1-.2.2h-.049c0-.049.049-.049.049-.1s.049-.049.049-.1c.049,0,.049-.049.1-.1l.147-.147c-.1,0-.147.049-.2.049-.1,0-.147.049-.245.049-.1.049-.1.147-.2.2h.147c-.049.049-.049.1-.049.2h-.049l-.1-.1h0c.049-.049.049-.1.049-.2a.171.171,0,0,1,.049-.1.543.543,0,0,0,.392-.441s0-.147.049-.147a3.973,3.973,0,0,1-.392.294,1.014,1.014,0,0,0-.1.294h0v-.2s-.049-.147,0-.2a1.919,1.919,0,0,0-.2.441v.049l-.147-.147v-.2a.214.214,0,0,0-.049.147l-.49-.49h.049l.049-.049.049-.1c.049-.049,0-.1-.049-.1v-.049c-.049-.147-.147-.1-.147-.1-.049,0-.049,0-.1.049a.367.367,0,0,0-.049-.245h0a.367.367,0,0,1-.049.245c0,.049-.049.049-.049.1a.048.048,0,0,1-.049.049.37.37,0,0,1-.392.049h.049a.367.367,0,0,0,.441,0l.049.049c0,.1-.049.2-.049.343a1.228,1.228,0,0,1-.049.49,1.732,1.732,0,0,0-.049.294h0v.1a.048.048,0,0,0-.049-.049c-.1,0-.1.147-.1.294h.147v.2h.049v.343a3.74,3.74,0,0,0-.441-.441h.049a.048.048,0,0,0,.049-.049l.049-.1c.049-.1-.049-.1-.1-.1h-.049a.049.049,0,0,0,0-.1.152.152,0,0,1,.049.1V150.7c.147-.1,0-.049,0-.049-.049.049-.1.1-.1.147l-.049-.049V150.7h-.049l.049-.049h0c.049-.049.147-.2.1-.245s-.2.1-.245.1h-.049c0-.049-.1-.2-.1-.294a1.626,1.626,0,0,1-.636-.343,1.746,1.746,0,0,1,.294.636.466.466,0,0,1,.343.1v.1a.7.7,0,0,0-.147.1.181.181,0,0,1-.147-.1h0v.1a.335.335,0,0,0,.343.343.18.18,0,0,0,.147-.049h0a.181.181,0,0,1-.1-.147.493.493,0,0,1,.049-.147h.049v.049h.049c0,.049,0,.049.049.1a.152.152,0,0,0,.1.049c0,.1-.049.245-.049.343,0,.2-.049.539-.049.587s-.049.343-.049.441h0c-.1,0-.1.147-.1.294h.147v.049h.1v2.448a3.106,3.106,0,0,0,.343,1.322l-.539.539v.049l.049.049h.049l.539-.49a1.185,1.185,0,0,0,1.273.587l-.881.881v.049l.049.049h.049l1.028-1.028a2.386,2.386,0,0,0,.539-.2c0,.049.049.049.1.049h.294a2.561,2.561,0,0,0-.441.734c0,.147,0,.294.392.245a1.2,1.2,0,0,1,.343-.049V158h0v.049h0v.049h0v.049h0a1.217,1.217,0,0,0-.049.392h0c0,.049.049.1.147.049.147,0,.245-.049.343-.049h0v.392h0v.049h0c0,.1.1.1.2.1a1.17,1.17,0,0,0,.343-.147v0a.754.754,0,0,0,.343.147.2.2,0,0,0,.2-.1h0v-.049h0v-.343c.1,0,.2.049.343.049.1,0,.147,0,.147-.049h0v0a3.2,3.2,0,0,0-.1-.539,1.067,1.067,0,0,1,.294.049c.392.049.392-.1.392-.245a4.712,4.712,0,0,0-.441-.734h.245c.049,0,.049-.049.1-.1a2.76,2.76,0,0,0,.587.2l1.028,1.028h.049l.049-.049v-.049l-.881-.881a1.346,1.346,0,0,0,1.273-.587l.539.49h.049l.049-.049v-.049l-.539-.539a3.481,3.481,0,0,0,.343-1.322v-2.3h.049v-.147h.147c0-.147,0-.294-.1-.294-.049,0-.049.049-.049.1h0c0-.049.049-.147.049-.2v.049h0a.048.048,0,0,0,.049.049h0c0-.1-.049-.392-.049-.441s-.049-.343-.049-.587a.726.726,0,0,0-.049-.343.18.18,0,0,0,.147-.049c.049-.049.049-.049.049-.1h.049V150.9h.049c.049.049.1.1.049.147a.181.181,0,0,1-.1.147h0c.049,0,.1.049.147.049a.335.335,0,0,0,.343-.343v-.147Zm-6.609-.587Zm2.105,8.567Zm.539-10.085Zm.93-.881Zm-1.567,1.567a.171.171,0,0,0,.049.1h0v.147c0,.049,0,.1-.049.1,0,.049-.049.049-.1.049a.18.18,0,0,0-.147.049v.049h-.049a.171.171,0,0,0-.1-.049h-.049a1.32,1.32,0,0,1,.343-.392c0-.049.049-.049.1-.049Zm.93-2.105Zm-.636.636Zm-1.909-.343Zm.783,2.4Zm.049,6.119c-.049,0-.1-.049-.147-.049a.214.214,0,0,0,.147.049Zm-.245-.1a.048.048,0,0,1,.049.049Zm-.049,0Zm-.1-.049Zm-.1-.1Zm-.343-.245Zm.049.049Zm.1.1Zm.1.049Zm-.294-.245Zm.587-5.483h0l-.049.049Zm-.294,5.63a1.984,1.984,0,0,0,.441.245,2.632,2.632,0,0,1-1.126-1.077A1.913,1.913,0,0,0,168.014,155.647Zm1.665.392Zm-2.888-3.329-.245-.245h0l-.049-.049-.049-.049h0l.049.049.294.294Zm-.685-.685Zm-.049-.049Zm0,0Zm0,0Zm-.049,0Zm3.916,3.965A2.7,2.7,0,0,0,171,154.912,2.408,2.408,0,0,1,169.924,155.94Zm-.2.1h.049C169.777,155.989,169.728,156.038,169.728,156.038Zm.1-.049a.048.048,0,0,0,.049-.049A.048.048,0,0,1,169.826,155.989Zm.587-7.686Zm.2-.734Zm-.049-.392Zm1.028.1Zm-1.616.343c-.049,0-.049.049-.1.1h0c.049,0,.049-.049.1-.1Zm-2.252.636Zm1.616,1.567Zm.832-1.224Zm.147-.049c.049,0,.049.049,0,0Zm.392-.685Zm-3.525-.147Zm.245.1Zm.392.685Zm-1.909.881Zm-.245.049Zm2.986,7.784h0a2.119,2.119,0,0,0-.049.245v-.049C168.651,157.36,168.651,157.311,168.651,157.213Zm4.6-6.315h0l-.147-.147Zm-.049,0Zm-.881.979h0l.147-.147Zm.343-1.273v-.049h0v.049Zm-.049-1.175Zm.049,0Zm-.049,0h0a.718.718,0,0,1-.2-.1l-.049.049h0C172.371,149.331,172.42,149.282,172.616,149.429Zm-3.035.441c-.049,0-.049,0-.1-.049h0Zm-1.322-1.224Zm.245.294Zm-.587,1.322Zm-2.056-.93c-.049,0-.147.1-.2.1h0C165.762,149.331,165.811,149.331,165.86,149.331Zm-.245.1Zm-.587,1.469Zm.147-.147-.147.147h0Zm-.2,1.762h0v.049h-.049a.048.048,0,0,1,.049-.049h0v-.049h0v.049Zm3.77,6.315h0v-.049h0v.049Zm.636-.1h0v0Zm0,.049v.049h0Zm3.868-6.071h0v0Z" transform="translate(-164 -146.889)"/></g><g transform="translate(10.281 82.216)"><path class="j" d="M214.4,206.587l.049.049h0c.049,0,.049,0,.049-.049v-.049h0c.049-.049-.049-.1-.049-.049,0,0-.049,0,0,.049-.049,0-.049,0-.049.049Z" transform="translate(-211.561 -202.823)"/><path class="j" d="M178.036,149.968a1.626,1.626,0,0,1-.636.343c0,.147-.049.294-.1.294h-.049c-.049-.049-.2-.147-.245-.1s.049.2.1.245h0v.049h-.049v.049c-.049,0-.049,0-.1.049h0a.2.2,0,0,0-.1-.2.173.173,0,0,0-.2.049v.1h0c-.049,0-.147,0-.1.1l.049.1s.049-.1.245-.1a.338.338,0,0,0-.245.147l.049.049h.049l-.441.441v-.343h.049v-.2h.147c0-.147,0-.294-.1-.294-.049,0-.049,0-.049.049v-.1h0c0-.1-.049-.245-.049-.294s-.049-.294-.049-.49c0-.1-.049-.245-.049-.343l.049-.049a.536.536,0,0,0,.392,0h.049a.37.37,0,0,1-.392-.049h0a.371.371,0,0,1,.2-.1,4.506,4.506,0,0,1,.147-.441,2.181,2.181,0,0,1-.392.245.507.507,0,0,1-.049.2h0l-.049-.049a.441.441,0,0,1-.049-.245h0c.245,0,.245.1.245.2,0-.049-.049-.049-.1-.049,0,0-.147-.049-.147.1v.049c-.049,0-.1.049-.049.1l.049.1.049.049h.049l-.441.441v-.049l-.147-.294h0c0,.049.049.049.049.1.049.1.049.2.1.294l-.147.147a2.907,2.907,0,0,0-.2-.392c-.049-.1-.049-.147-.1-.2h0a3.4,3.4,0,0,1,.245.636l-.049.049a4.047,4.047,0,0,0-.343-.636h0c.1.245.2.441.294.685l-.1.1c-.147-.294-.343-.587-.49-.881h0c.1.2.2.392.294.636l.147.294h0l-.049.049h0a3.652,3.652,0,0,0-.343-.587,2.691,2.691,0,0,0-.343-.441h0a4.89,4.89,0,0,1,.392.685l.2.441h0l-.1.1c-.049-.1-.1-.147-.147-.245-.1-.147-.245-.294-.343-.441h0l.441.734h0l-.1.1c0-.049-.049-.049-.049-.1-.049-.049-.049-.1-.1-.1h0a1.07,1.07,0,0,1,.147.245l-.147.147a3.126,3.126,0,0,0-.832-.93h0l-.049-.049h0c-.049,0-.147-.1-.294-.147v-.049h0a.7.7,0,0,0-.1-.147.18.18,0,0,0-.147-.049c-.049-.049-.049-.049-.049-.1v-.1h0a.152.152,0,0,0,.1-.049.532.532,0,0,0,.049-.245l.049.049a.493.493,0,0,0,.049-.147h0v-.1h0v-.147c.1.147.147.147.2.147s0-.147,0-.2a.382.382,0,0,0,.2.147c.049,0,.049-.147.049-.2.1.1.2.147.245.1.049,0,0-.1,0-.2.147.1.245.049.245,0a.7.7,0,0,0-.1-.2c.147.1.294.1.343.049.049,0-.049-.147-.1-.2a.846.846,0,0,0,.343.1.371.371,0,0,0-.1-.2c.441.294.441.147.441.147l-.1-.147c.2.049.343.1.392.049a.152.152,0,0,0-.049-.1c.343.1.441.049.441.049.049,0-.049-.1-.1-.147a1.578,1.578,0,0,1,.294.1c.245,0,.2-.049.049-.147a2.088,2.088,0,0,0,.441.1c0-.049-.147-.147-.245-.2a1.127,1.127,0,0,0,.441.147c.2.049.1-.049.1-.049l-.245-.147c.1.049.2.049.245.1.2.049.1-.049.1-.049l-.343-.2h0a2.644,2.644,0,0,0,.587.2.171.171,0,0,0-.1-.049h0a.152.152,0,0,0,.1.049h-.049a2.9,2.9,0,0,0-.294-.2c-.049,0-.049-.049-.1-.049-.147-.049-.832-.392-.93-.441a3.606,3.606,0,0,0-.685-.2c-.147,0-.734-.1-1.224-.147-.392-.049-.392.245-.392.343v.049s-.1.1-.147.1a.152.152,0,0,1-.1.049,2.015,2.015,0,0,0-.392.147.171.171,0,0,0-.1-.049c-.1,0-.245-.049-.49-.049-.2,0-.294.1-.294.147h-.049a2.9,2.9,0,0,0-.294-.2h-.049v-.2c0-.049,0-.1-.049-.1v-.049c0-.1-.049-.245-.2-.245h-.587a1.4,1.4,0,0,0-.685,0,7.139,7.139,0,0,0-.93.343c-.049,0-.1.049-.147.049a.18.18,0,0,1-.147.049h.049a7.374,7.374,0,0,0-1.028.587.379.379,0,0,0,.147-.049.37.37,0,0,0,.2-.049s0,.049.147.049h.2a.048.048,0,0,0-.049.049c0,.049.2,0,.539-.049-.1.049-.147.1.1.147,0,0,.147-.049.343-.1-.049.049-.1.1-.1.147a.573.573,0,0,0,.49-.049c-.049.049-.147.1-.1.147a.976.976,0,0,0,.392-.1l-.1.147s.049.147.49-.1c-.049.1-.147.2-.1.2,0,.049.147.049.343-.049-.049.1-.147.2-.1.2.049.049.2.049.343-.049l-.1.2s.147.1.245,0c-.049.1-.049.147,0,.2a.316.316,0,0,0,.245-.1v.2c.049,0,.147-.049.245-.2v.294c.049,0,.1.049.2-.147v.2h.049a1.228,1.228,0,0,0-.2.343,1.342,1.342,0,0,0-.2.343c-.049.1-.1.147-.049.147h0a.18.18,0,0,0-.049.147c-.049.147-.147.294-.1.343a3.7,3.7,0,0,0-.539.685l-.147-.147-.049-.049c.049-.049.1-.1.147-.1h-.245l-.049-.049c.049-.049.1-.049.1-.1h0a.676.676,0,0,1,.2-.147c-.049,0-.049,0-.1.049h-.147a.466.466,0,0,1,.343-.1c.1,0,.147,0,.2-.049a.371.371,0,0,0,.2-.1,2.12,2.12,0,0,1-.245-.049h0c.049-.049-.049-.1-.049-.049h-.1l.049-.049a.048.048,0,0,0,.049-.049c.147-.049.343,0,.441-.1-.049,0-.1.049-.2.049h-.147a.489.489,0,0,0,.2-.245c-.049.049-.1.049-.2.1-.049.049-.1.1-.1.147h0v-.2c-.049.049-.049.1-.1.147a.294.294,0,0,1-.049.2h-.049v-.049h0c.147,0,.049-.049.049,0,0,0-.049,0,0,.049v.049h0l.049.049-.049.049c-.049.049-.147.1-.2.2h-.049c0-.049.049-.049.049-.1s.049-.049.049-.1c.049,0,.049-.049.1-.1l.147-.147c-.1,0-.147.049-.2.049-.1,0-.147.049-.245.049-.1.049-.1.147-.2.2h.147c-.049.049-.049.1-.049.2h-.049l-.1-.1h0c.049-.049.049-.1.049-.2a.171.171,0,0,1,.049-.1.543.543,0,0,0,.392-.441s0-.147.049-.147a3.973,3.973,0,0,1-.392.294,1.015,1.015,0,0,0-.1.294h0v-.2s-.049-.147,0-.2a1.919,1.919,0,0,0-.2.441v.049l-.147-.147v-.2a.214.214,0,0,0-.049.147l-.49-.49h.049l.049-.049.049-.1c.049-.049,0-.1-.049-.1v-.049c-.049-.147-.147-.1-.147-.1-.049,0-.049,0-.1.049a.367.367,0,0,0-.049-.245h0a.367.367,0,0,1-.049.245c0,.049-.049.049-.049.1a.048.048,0,0,1-.049.049.37.37,0,0,1-.392.049h.049a.367.367,0,0,0,.441,0l.049.049c0,.1-.049.2-.049.343v.2l7.49,6.364a2.893,2.893,0,0,0,.245-1.077v-2.3h.049v-.147h.147c0-.147,0-.294-.1-.294-.049,0-.049.049-.049.1h0c0-.049.049-.147.049-.2v.049h0a.048.048,0,0,0,.049.049h0c0-.1-.049-.392-.049-.441s-.049-.343-.049-.587a.726.726,0,0,0-.049-.343.18.18,0,0,0,.147-.049c.049-.049.049-.049.049-.1h.049v-.049h.049c.049.049.1.1.049.147a.181.181,0,0,1-.1.147h0c.049,0,.1.049.147.049a.335.335,0,0,0,.343-.343v-.1h0s-.1.1-.147.1c-.1,0-.147-.049-.147-.1v-.1a.571.571,0,0,1,.343-.1A1.152,1.152,0,0,1,178.036,149.968Zm-1.616.587v.049h0v-.049Zm-1.028-3.28h-.049C175.343,147.226,175.343,147.275,175.392,147.275Zm-.636.49Zm-.245.1Zm-.2-.685Zm-.147,1.126Zm-.1.245c.049,0,.049.049,0,0Zm-.147.049Zm-.147.049Zm-.1-.979c.049,0,.049-.049,0,0l-.049.049c.049,0,.049,0,.049-.049Zm-.245.147Zm-2.546-.049h0c0-.049.049-.049,0,0C170.937,147.716,170.888,147.716,170.888,147.765Zm.294.049Zm.294.441Zm.049-.685Zm.049.93Zm.441.147Zm-2.35.734Zm-.294.049Zm.049,0Zm0,0h0c.1-.1.147-.1.2-.1-.049,0-.147.1-.2.1Zm2.252.832Zm.392-.245Zm.2-1.077Zm.049.979Zm.783-.1Zm.049-.147c0,.049-.049.049-.1.049a.18.18,0,0,0-.147.049v.049h-.049a.171.171,0,0,0-.1-.049H172.7a1.319,1.319,0,0,1,.343-.392l.049-.049v.049a.171.171,0,0,0,.049.1h0v.147C173.189,149.625,173.14,149.674,173.14,149.674Zm.1.2h0a.152.152,0,0,1,.1.049C173.336,149.87,173.287,149.87,173.238,149.87Zm2.839,2.007h0l.147-.147Zm.294-2.448h0a.718.718,0,0,1-.2-.1l-.049.049h0c0-.049.049-.1.245.049Zm0,0Zm0,0Zm.587,1.469Zm0,0-.147-.147q.073,0,.147.147Zm.049,1.762v0Z" transform="translate(-168 -146.889)"/></g></g></svg>