<svg xmlns="http://www.w3.org/2000/svg" width="30" height="19.656" viewBox="0 0 30 19.656"><defs><style>.a{fill:#ffe15a;}.b{fill:#464655;}.c{fill:#ff4b55;}</style></defs><g transform="translate(0 -88.25)"><path class="a" d="M27.761,107.906H2.245A2.245,2.245,0,0,1,0,105.662V90.495A2.245,2.245,0,0,1,2.245,88.25H27.755A2.245,2.245,0,0,1,30,90.495v15.167A2.236,2.236,0,0,1,27.761,107.906Z" transform="translate(0 0)"/><path class="b" d="M2.672,88.25A2.487,2.487,0,0,0,0,90.495v15.167a2.487,2.487,0,0,0,2.672,2.245H11.9V88.25Z"/><path class="c" d="M350.537,88.25H341.3v19.656h9.23a2.486,2.486,0,0,0,2.672-2.245V90.495A2.476,2.476,0,0,0,350.537,88.25Z" transform="translate(-323.202)"/></g></svg>