<svg xmlns="http://www.w3.org/2000/svg" width="30" height="20.468" viewBox="0 0 30 20.468"><defs><style>.a{fill:#e13e3e;}.b{fill:#d12a2a;}.c{fill:#fff;}.d{fill:#e9f3f4;}.e{fill:#3757a6;}.f{fill:#c11414;}.g{fill:#d9eced;}.h{fill:#2a4d93;}.i{fill:#19407f;}</style></defs><g transform="translate(0 -78.8)"><path class="a" d="M0,249.2v7.478a2.822,2.822,0,0,0,2.9,2.853H27.1a2.822,2.822,0,0,0,2.9-2.853V249.2Z" transform="translate(0 -160.263)"/><path class="b" d="M248,249.2l12.151,10.331a2.975,2.975,0,0,0,3.1-2.853V249.2Z" transform="translate(-233.25 -160.263)"/><path class="c" d="M27.1,78.8H2.9a2.948,2.948,0,0,0-2.9,3v7.478H30V81.8A2.948,2.948,0,0,0,27.1,78.8Z"/><path class="d" d="M72.15,78.8H48L60.075,89.279H75.048V81.8A2.945,2.945,0,0,0,72.15,78.8Z" transform="translate(-45.048)"/><path class="e" d="M2.952,81.2A2.847,2.847,0,0,0,0,84.053v7.478H11.807V81.2Z" transform="translate(0 -2.252)"/><path class="f" d="M30,369.249a2.863,2.863,0,0,1-2.9,2.9H2.9A2.905,2.905,0,0,1,0,369.2" transform="translate(0 -272.884)"/><path class="g" d="M48,78.8H72.15a2.945,2.945,0,0,1,2.9,3v5.461" transform="translate(-45.048)"/><path class="h" d="M56.855,81.2H48l8.855,7.428Z" transform="translate(-45.048 -2.252)"/><path class="f" d="M30,369.249a2.777,2.777,0,0,1-2.9,2.9H2.9A2.905,2.905,0,0,1,0,369.2" transform="translate(0 -272.884)"/><path class="i" d="M56.855,81.2H48l8.855,2.558Z" transform="translate(-45.048 -2.252)"/><path class="c" d="M55.457,124.4l.64,1.968h2.066L56.49,127.6l.64,1.919-1.673-1.181-1.623,1.181.59-1.919-1.623-1.23h2.017Z" transform="translate(-49.553 -42.796)"/><path class="g" d="M75.85,129.418l-.59-1.82,1.673-1.23H74.866l-.64-1.968-.64,1.968H72.8Z" transform="translate(-68.323 -42.796)"/></g></svg>