<svg xmlns="http://www.w3.org/2000/svg" width="30.001" height="20.323" viewBox="0 0 30.001 20.323"><defs><style>.a{fill:#fff;}.b{fill:#e9f3f4;}.c{fill:#d9eced;}.d{fill:#3757a6;}.e{fill:#1c417c;}</style></defs><g transform="translate(0 -80)"><path class="a" d="M30,97.517a2.8,2.8,0,0,1-2.9,2.807H2.9A2.8,2.8,0,0,1,0,97.517V82.807A2.8,2.8,0,0,1,2.9,80H27.1A2.8,2.8,0,0,1,30,82.807Z"/><path class="b" d="M48,80H72.194a2.8,2.8,0,0,1,2.9,2.807v14.71a3.015,3.015,0,0,1-3.145,2.807" transform="translate(-45.097)"/><g transform="translate(0 80)"><path class="c" d="M30,368.048a2.811,2.811,0,0,1-2.9,2.855H2.9A2.881,2.881,0,0,1,0,368" transform="translate(0 -350.58)"/><path class="c" d="M48,80H72.194a2.8,2.8,0,0,1,2.9,2.807v5.42" transform="translate(-45.097 -80)"/></g><path class="d" d="M30,88.226H16.936V80H13.065v8.226H0V92.1H13.065v8.226h3.871V92.1H30Z"/><g transform="translate(12.629 80)"><rect class="e" width="4" height="3" transform="translate(0.371 17.162)"/><path class="e" d="M213.107,80h-3.871v8.226H208.8l4.548,3.871h12.823V88.226H213.107Z" transform="translate(-208.8 -80)"/></g></g></svg>