<svg xmlns="http://www.w3.org/2000/svg" width="30.301" height="20.766" viewBox="0 0 30.301 20.766"><defs><style>.a{fill:#002d62;}.b{fill:#ce1126;}.c{fill:#b50922;}.d{fill:#002549;}.e{fill:#910519;}.f{fill:#00101e;}.g{fill:#fff;}.h{fill:#d3d3d3;}</style></defs><g transform="translate(0 -78.25)"><path class="a" d="M268,269.45v9.115h10.986a3,3,0,0,0,2.986-2.973V269.45Z" transform="translate(-251.67 -179.55)"/><path class="b" d="M14.575,269.45H0v6.142a2.944,2.944,0,0,0,2.925,2.973h11.65Z" transform="translate(0 -179.55)"/><g transform="translate(0 78.25)"><path class="a" d="M15.062,78.25H2.925A2.944,2.944,0,0,0,0,81.223V88.73H15.062Z" transform="translate(0 -78.25)"/><path class="a" d="M271.455,78.25H260V88.73h14.459V81.223A3.011,3.011,0,0,0,271.455,78.25Z" transform="translate(-244.158 -78.25)"/></g><path class="c" d="M72.373,78.25H48L72.391,99.016a3,3,0,0,0,2.986-2.973V81.223A3.011,3.011,0,0,0,72.373,78.25Z" transform="translate(-45.075 0)"/><g transform="translate(2.925 78.25)"><path class="d" d="M283.024,278.565a3.008,3.008,0,0,0,2.986-2.973V269.45H272.3Z" transform="translate(-258.633 -257.8)"/><path class="d" d="M60.138,78.25H48L60.138,88.584Z" transform="translate(-48 -78.25)"/></g><path class="e" d="M72.373,78.25H48l27.377,8.384V81.223A3.011,3.011,0,0,0,72.373,78.25Z" transform="translate(-45.075 0)"/><g transform="translate(0 78.25)"><path class="f" d="M60.138,78.25H48l12.138,3.7Z" transform="translate(-45.075 -78.25)"/><path class="f" d="M0,370.25a2.944,2.944,0,0,0,2.925,2.973H27.316A3,3,0,0,0,30.3,370.25Z" transform="translate(0 -352.458)"/></g><path class="e" d="M0,370.25a2.944,2.944,0,0,0,2.925,2.973h11.65V370.25Z" transform="translate(0 -274.208)"/><path class="g" d="M17.871,85.909V78.25H12.509v7.659H0v5.362H12.509v7.7h5.362v-7.7H30.3V85.909Z" transform="translate(0 0)"/><g transform="translate(11.918 78.25)"><path class="h" d="M205.3,370.25v2.973h5.362V370.25Z" transform="translate(-204.709 -352.458)"/><path class="h" d="M201.553,78.25h-5.362v7.659H195.6l6.288,5.362h12.095V85.909h-12.43Z" transform="translate(-195.6 -78.25)"/></g><path class="b" d="M225.872,227.38c.146,0,.2,0,.292.1a.348.348,0,0,1,.049.049l.049-.049c.1-.1.146-.1.292-.1h.439a.4.4,0,0,0,.341-.4h0v-2.035h0l.244-.244.049-.049H224.8l.049.049.177.177c.024.055.043.11.067.165v1.938a.4.4,0,0,0,.341.4Z" transform="translate(-211.103 -137.48)"/><g transform="translate(11.607 85.854)"><path class="a" d="M205.044,204.512l.049-.049a.369.369,0,0,1,.195-.1c.146-.073.39-.1.579-.189a.26.26,0,0,0,.152-.25h0a2.033,2.033,0,0,1,.292-.1c.341-.1.463,0,.609-.049a.055.055,0,0,0,.03-.006.1.1,0,0,0,.049-.128l-.024-.11h.7c0,.1-.1.195.1.244.146.049.439-.049.731.049l.292.1a.245.245,0,0,0,.134.256.593.593,0,0,0,.207.085,2.11,2.11,0,0,1,.585.244c0-.049-.146-.195-.146-.244h.292c-.049-.1-.195-.146-.292-.195l-.341-.146v-.049c0-.049.049-.1,0-.146a.892.892,0,0,0-.439-.244c-.189-.043-.78-.146-.78-.146a.161.161,0,0,0-.1-.219,1.105,1.105,0,0,0-.262-.055,4.031,4.031,0,0,0-.768,0,.38.38,0,0,0-.238.073c-.049.049-.049.1-.049.195h0a2.432,2.432,0,0,0-1.024.244c-.146.1-.195.1-.1.244a1.107,1.107,0,0,1-.195.049,2.277,2.277,0,0,0-.487.244l.335.024A.665.665,0,0,1,205.044,204.512Z" transform="translate(-203.929 -203.05)"/><path class="a" d="M192.194,229.3a2.065,2.065,0,0,1-.871-.829l-.006-.012H191.3a1.227,1.227,0,0,1-.512-.134,2.113,2.113,0,0,1-.219-.189.479.479,0,0,1,.658.128h0a1.158,1.158,0,0,1-.067-.457V227.8l-.195.055a.5.5,0,0,1-.335-.067.685.685,0,0,1-.134-.1.336.336,0,0,1,.481-.1.539.539,0,0,1,.1.073l.049.043-.1-.427-.006-.006a.387.387,0,0,1-.152-.244.59.59,0,0,1,.134-.433.449.449,0,0,1,.085.64l-.006.006v.006a1.319,1.319,0,0,0,.073.347l.03.079.012-.085a2.536,2.536,0,0,1,.244-.7l.006-.012-.006-.012a.619.619,0,0,1-.006-.719.632.632,0,0,1,.152.347v.043l.037-.024a.463.463,0,0,1,.116-.073l.018-.006-.006-.018a.519.519,0,0,1,.2-.567.49.49,0,0,1-.085.506l-.043.049.061-.012a.693.693,0,0,1,.286.006.606.606,0,0,1-.591.347h-.012l-.006.012a2.244,2.244,0,0,0-.11.2l.037.024a.383.383,0,0,1,.445-.061c-.165.286-.335.39-.481.311a.239.239,0,0,1-.061-.049l-.024-.024-.012.03a2.2,2.2,0,0,0-.1.3l-.018.073.055-.055a.336.336,0,0,1,.359-.043c-.134.238-.274.323-.4.256l-.03-.018-.006.03a1.273,1.273,0,0,0,.012.341l.024.158h0a.259.259,0,0,1,.1-.128.343.343,0,0,1,.347-.024c.03.018.055.037.073.049a1.261,1.261,0,0,1-.414.292l-.024.012.012.024a1.238,1.238,0,0,0,.177.262l.03.037.012-.043c.085-.341.274-.384.28-.384a.244.244,0,0,1,.146.006c.055.03.018.122-.018.189a.557.557,0,0,1-.317.28l-.037.012.024.024a2.523,2.523,0,0,0,.548.4Z" transform="translate(-190.5 -224.461)"/><path class="a" d="M276.812,229.3a2.065,2.065,0,0,0,.871-.829l.006-.012h.012a1.227,1.227,0,0,0,.512-.134,2.121,2.121,0,0,0,.219-.189.479.479,0,0,0-.658.128h0a1.158,1.158,0,0,0,.067-.457V227.8l.195.055a.5.5,0,0,0,.335-.067.686.686,0,0,0,.134-.1.336.336,0,0,0-.481-.1.541.541,0,0,0-.1.073l-.049.043.1-.427.006-.006a.387.387,0,0,0,.152-.244.59.59,0,0,0-.134-.433.449.449,0,0,0-.085.64l.006.006v.006a1.321,1.321,0,0,1-.073.347l-.03.079-.012-.085a2.535,2.535,0,0,0-.244-.7l-.006-.012.006-.012a.618.618,0,0,0,.006-.719.632.632,0,0,0-.152.347v.043l-.037-.024a.461.461,0,0,0-.116-.073l-.018-.006.006-.018a.519.519,0,0,0-.2-.567.49.49,0,0,0,.085.506l.043.049-.061-.012a.693.693,0,0,0-.286.006.606.606,0,0,0,.591.347h.012l.006.012a2.251,2.251,0,0,1,.11.2l-.037.024a.384.384,0,0,0-.445-.061c.165.286.335.39.481.311a.239.239,0,0,0,.061-.049l.024-.024.012.03a2.2,2.2,0,0,1,.1.3l.018.073-.055-.055a.336.336,0,0,0-.36-.043c.134.238.274.323.4.256l.031-.018.006.03a1.271,1.271,0,0,1-.012.341l-.024.158h0a.259.259,0,0,0-.1-.128.343.343,0,0,0-.347-.024c-.03.018-.055.037-.073.049a1.262,1.262,0,0,0,.414.292l.024.012-.012.024a1.237,1.237,0,0,1-.177.262l-.03.037-.012-.043c-.085-.341-.274-.384-.28-.384a.243.243,0,0,0-.146.006c-.055.03-.018.122.018.189a.557.557,0,0,0,.317.28l.036.012-.024.024a2.524,2.524,0,0,1-.548.4Z" transform="translate(-271.542 -224.461)"/><path class="a" d="M208.884,268.894a.187.187,0,0,0-.146.049c.03-.1.067-.195.1-.292-.079.079-.122.165-.207.244-.067.061-.085.146-.146.2s-.024.024-.085.006c-.14-.043-.286.256-.341.341s-.055.061-.146.037c-.091-.049-.2-.049-.292-.1.018-.018-.2-.073-.286-.073a.475.475,0,0,1-.171-.03.615.615,0,0,0,.018.1,3.072,3.072,0,0,0-.707-.085h-.012a3.072,3.072,0,0,0-.707.085c.006-.037.012-.067.018-.1a.5.5,0,0,1-.171.03c-.085,0-.3.055-.286.073-.091.049-.2.049-.292.1-.1.024-.079.061-.146-.037s-.2-.384-.341-.341c-.061.018-.03.049-.085-.006s-.079-.146-.146-.2c-.085-.079-.128-.164-.207-.244.03.1.067.2.1.292a.187.187,0,0,0-.146-.049c-.055,0-.091-.049-.146-.049a1.343,1.343,0,0,1,.244.341.9.9,0,0,0,.3.384c.043.037.061.1.134.067s.1.073.14.122a.663.663,0,0,0,.378.268c.116.012.4-.043.427-.183a.4.4,0,0,0-.018-.146c-.006-.049.091-.055.134-.067s.317-.122.347-.012c.024.073-.189.146-.244.146.03.018.067.031.1.049-.018.03-.03.067-.049.1a.394.394,0,0,0,.244-.1c0,.049.03.03.049.049-.061.03-.116.061-.177.085-.128.061-.006.14.091.085a2.68,2.68,0,0,0,.341-.189.178.178,0,0,1,.232,0,2.32,2.32,0,0,0,.341.189c.1.055.213-.024.091-.085-.061-.03-.116-.061-.177-.085.018-.018.049,0,.049-.049a.394.394,0,0,0,.244.1c-.018-.03-.03-.067-.049-.1.03-.018.067-.03.1-.049-.055,0-.268-.073-.244-.146.03-.11.292-.006.347.012s.14.018.134.067a.4.4,0,0,0-.018.146c.03.134.311.195.427.183a.644.644,0,0,0,.378-.268c.043-.049.067-.152.14-.122s.1-.03.134-.067a.859.859,0,0,0,.3-.384,1.342,1.342,0,0,1,.244-.341C208.976,268.845,208.939,268.894,208.884,268.894Z" transform="translate(-203.084 -264.653)"/></g></g></svg>