<svg xmlns="http://www.w3.org/2000/svg" width="30.404" height="20.596" viewBox="0 0 30.404 20.596"><defs><style>.a{fill:#cd2227;}.b{fill:#a80014;}.c{fill:#890017;}.d{fill:#fff;}.e{fill:#d9eced;}</style></defs><path class="a" d="M30.4,97.752a2.838,2.838,0,0,1-2.942,2.844H2.942A2.838,2.838,0,0,1,0,97.752V82.844A2.838,2.838,0,0,1,2.942,80H27.461A2.838,2.838,0,0,1,30.4,82.844Z" transform="translate(0 -80)"/><g transform="translate(0 0)"><path class="b" d="M30.4,368.049a2.878,2.878,0,0,1-2.942,2.893H2.942A2.8,2.8,0,0,1,0,368" transform="translate(0 -350.346)"/><path class="b" d="M48,80H72.519a2.838,2.838,0,0,1,2.942,2.844V97.752a2.838,2.838,0,0,1-2.942,2.844" transform="translate(-45.058 -80)"/></g><path class="c" d="M48,80H72.519a2.838,2.838,0,0,1,2.942,2.844v5.492" transform="translate(-45.058 -80)"/><path class="d" d="M30.4,88.336H17.163V80H13.24v8.336H0v3.923H13.24V100.6h3.923V92.259H30.4Z" transform="translate(0 -80)"/><g transform="translate(12.897 0)"><rect class="e" width="4" height="2" transform="translate(0.305 18.286)"/><path class="e" d="M214.666,80h-3.923v8.336H210.4l4.61,3.923h12.9V88.336h-13.24Z" transform="translate(-210.4 -80)"/></g></svg>