<svg xmlns="http://www.w3.org/2000/svg" width="30.689" height="21.086" viewBox="0 0 30.689 21.086"><defs><style>.a{fill:#171796;}.b{fill:red;}.c{fill:#fff;}.d{fill:#0b0b7a;}.e{fill:#e20303;}.f{fill:#d9e6ed;}.g{fill:#d30000;}.h{fill:#c6dae5;}.i{fill:#070751;}.j{fill:#0093dd;}.k{fill:#0068b5;}.l{fill:#ce0202;}.m{fill:#2727c1;}.n{fill:#cadddc;}.o{fill:#b70000;}.p{fill:#dda300;}.q{fill:#f7db17;}</style></defs><g transform="translate(0 -77.6)"><path class="a" d="M0,304.8v4.009a2.989,2.989,0,0,0,2.97,3.019H27.718a2.989,2.989,0,0,0,2.97-3.019V304.8Z" transform="translate(0 -213.143)"/><path class="b" d="M27.718,77.6H2.97A2.989,2.989,0,0,0,0,80.619v4.009H30.688V80.619A2.989,2.989,0,0,0,27.718,77.6Z" transform="translate(0)"/><rect class="c" width="30" height="7" transform="translate(0.345 84.743)"/><path class="d" d="M323.417,311.829a2.989,2.989,0,0,0,2.97-3.019V304.8H315.2Z" transform="translate(-295.698 -213.143)"/><path class="e" d="M72.749,77.6H48l8.217,7.029h19.5V80.619A2.989,2.989,0,0,0,72.749,77.6Z" transform="translate(-45.03)"/><path class="f" d="M188.415,196.827h11.137V189.6H180Z" transform="translate(-168.863 -105.07)"/><path class="g" d="M72.749,77.6H48l22.917,7.029h4.8V80.619A2.989,2.989,0,0,0,72.749,77.6Z" transform="translate(-45.03)"/><path class="h" d="M419.449,191.134V189.6H414.4Z" transform="translate(-388.76 -105.07)"/><path class="i" d="M30.688,369.6a2.989,2.989,0,0,1-2.97,3.019H2.97A2.989,2.989,0,0,1,0,369.6" transform="translate(0 -273.934)"/><path class="j" d="M288.734,138.368l.94-2.079-.693-1.089-1.237.445-.544,2.227a5.565,5.565,0,0,1,1.534.495Z" transform="translate(-269.43 -54.036)"/><path class="k" d="M287.2,137.823a8.064,8.064,0,0,1,1.534.544h0l.94-2.079-.693-1.089" transform="translate(-269.43 -54.036)"/><path class="b" d="M292.033,157.938l.247-.544a10.211,10.211,0,0,0-1.732-.594l-.148.544a10.837,10.837,0,0,1,1.633.594Z" transform="translate(-272.432 -74.3)"/><path class="l" d="M294.4,158.944a11.421,11.421,0,0,1,1.386.495l.247-.544a13.728,13.728,0,0,0-1.287-.495Z" transform="translate(-276.185 -75.801)"/><path class="m" d="M201.98,126.243h0l-1.138-.643-.841.99.544,2.227a5.926,5.926,0,0,1,1.633-.247l-.2-2.326Z" transform="translate(-187.626 -45.03)"/><path class="a" d="M208.8,128.817a5.926,5.926,0,0,1,1.633-.247l-.2-2.326h0L209.1,125.6" transform="translate(-195.881 -45.03)"/><path class="m" d="M263.027,126.59h0l-.841-.99-1.188.643-.2,2.277c.544.049,1.089.148,1.633.247l.594-2.178Z" transform="translate(-244.664 -45.03)"/><path class="a" d="M261.6,127.77c.544.049,1.089.148,1.633.247l.544-2.227h0l-.841-.99" transform="translate(-245.414 -44.28)"/><path class="j" d="M170.73,134.845h0l-1.237-.445-.693,1.089.248.594.643,1.485a13.993,13.993,0,0,1,1.534-.544l-.495-2.178Z" transform="translate(-158.356 -53.286)"/><path class="k" d="M171.275,137.073l-.544-2.227h0l-1.237-.445-.693,1.089" transform="translate(-158.356 -53.286)"/><path class="c" d="M181.6,189.6v4.9a4.108,4.108,0,1,0,8.217,0v-4.9Z" transform="translate(-170.364 -105.07)"/><path class="n" d="M247.249,198.609a4.13,4.13,0,0,0,4.108-4.108v-4.9H247.2" transform="translate(-231.905 -105.07)"/><g transform="translate(11.434 84.678)"><path class="b" d="M186.334,192H184.8v1.732h1.534Z" transform="translate(-184.8 -192)"/><path class="b" d="M209.6,221.732h1.584V220H209.6Z" transform="translate(-208.066 -218.268)"/><path class="b" d="M184.8,249.287a1.37,1.37,0,0,0,.049.445h1.534V248H184.8Z" transform="translate(-184.8 -244.535)"/><path class="b" d="M236.784,248H235.2v1.732h1.584Z" transform="translate(-232.082 -244.535)"/></g><g transform="translate(14.552 88.143)"><path class="o" d="M236.784,249.732V248H235.2" transform="translate(-235.2 -248)"/><path class="o" d="M260.8,277.732h1.584V276H260.8Z" transform="translate(-259.216 -274.268)"/><path class="o" d="M286.4,304.94a4.023,4.023,0,0,0,.891-.94H286.4Z" transform="translate(-283.232 -300.535)"/></g><g transform="translate(12.077 89.875)"><path class="b" d="M209.6,277.732h1.584V276H209.6Z" transform="translate(-208.709 -276)"/><path class="b" d="M195.2,304a4.024,4.024,0,0,0,.891.94V304Z" transform="translate(-195.2 -302.268)"/><path class="b" d="M236.289,305.732c.2,0,.346-.049.495-.049V304H235.2v1.683a1.684,1.684,0,0,0,.495.049Z" transform="translate(-232.725 -302.268)"/></g><g transform="translate(14.552 86.411)"><path class="o" d="M236.289,305.732h0c.2,0,.346-.049.495-.049V304H235.2" transform="translate(-235.2 -298.803)"/><path class="o" d="M287.934,249.732c0-.148.049-.3.049-.445V248H286.4v1.732Z" transform="translate(-283.232 -246.268)"/><path class="o" d="M260.8,221.732h1.584V220H260.8Z" transform="translate(-259.216 -220)"/></g><path class="b" d="M236.784,192H235.2v1.732h1.584Z" transform="translate(-220.648 -107.322)"/><g transform="translate(14.552 84.678)"><path class="o" d="M236.784,193.732V192H235.2" transform="translate(-235.2 -192)"/><path class="o" d="M287.934,193.732V192H286.4v1.732Z" transform="translate(-283.232 -192)"/></g><path class="c" d="M181.988,162.5h0v-.049h0v0h0v.544h-.544v.049h.891V162.6l-.346-.1Zm-1.188.1Z" transform="translate(-169.614 -79.553)"/><path class="n" d="M194.6,159.142v-.049h0l.049-.049h0v-.05h0l.049-.049h0v-.049h0v-.049l.049-.049h0v-.049h0V158.7h0v-.049H194.7V158.6h0v-.049h0V158.5h0v-.049h-.049v0h0v.049h0v.049h0v.049h0v.049h0v.1H194.6v.049h0v.049h-.049v.049h0l-.049.049h0l-.049.049h0l-.049.05h0Z" transform="translate(-182.372 -75.801)"/><g transform="translate(11.137 82.946)"><path class="c" d="M180.8,165.6Z" transform="translate(-180.751 -165.501)"/><path class="c" d="M180.049,164.849h0L180,164.8Z" transform="translate(-180 -164.75)"/><path class="c" d="M200,164Z" transform="translate(-198.763 -164)"/></g><path class="b" d="M204.148,155.291a10.006,10.006,0,0,1,1.683-.3l-.049-.594a10.3,10.3,0,0,0-1.782.3l.148.594Z" transform="translate(-191.378 -72.048)"/><path class="l" d="M209.649,154.6l-.049.643a14.2,14.2,0,0,1,1.534-.247l-.049-.594A12.551,12.551,0,0,0,209.649,154.6Z" transform="translate(-196.632 -72.048)"/><path class="b" d="M200.1,136.891a11.474,11.474,0,0,1,1.881-.3V136a8.727,8.727,0,0,0-1.98.346Z" transform="translate(-187.626 -54.787)"/><path class="l" d="M211.2,136.742a11.563,11.563,0,0,1,1.287-.2V136l-1.188.148Z" transform="translate(-198.133 -54.787)"/><path class="c" d="M289.65,155.843a7.954,7.954,0,0,1,1.633.594l-.049.148a10.539,10.539,0,0,0-1.633-.544Zm1.881.1.049-.148a9.407,9.407,0,0,0-1.782-.594l-.049.148a6.86,6.86,0,0,1,1.782.594Z" transform="translate(-271.682 -72.799)"/><g transform="translate(18.116 82.5)"><path class="n" d="M300.586,157.295a9.915,9.915,0,0,0-1.287-.495l-.1.148a9.916,9.916,0,0,1,1.287.495h0v-.049Z" transform="translate(-298.804 -156.8)"/><path class="n" d="M294.235,167.843l.049-.148c-.445-.2-.94-.346-1.386-.495l-.1.148A7.023,7.023,0,0,1,294.235,167.843Z" transform="translate(-292.8 -166.557)"/></g><path class="p" d="M179.992,145.245l-.2-.148.049-.2v-.049h0l-.2.1-.2-.148h0l-.049.2-.2.1h0l.148.148v.2h0l.2-.049.148.148h0l.049-.247.2-.049Z" transform="translate(-168.113 -63.042)"/><path class="q" d="M306.392,140.3h0l-.2-.049-.049-.247h-.049l-.148.148-.2-.049h0l.049.2-.2.148h0v.049l.2.049.049.2v.049l.049-.049.149-.148.2.1h0l-.049-.247.2-.1Z" transform="translate(-286.692 -58.539)"/><path class="p" d="M307.745,140.693h0l-.049-.247.2-.1V140.3h0l-.2-.049-.049-.247H307.6l-.148.148H307.4l-.2.346.1.049.05.2v.049l.049-.049.148-.148Z" transform="translate(-288.193 -58.539)"/><path class="j" d="M233.98,123.241h0l-.99-.841-.99.841.2,2.277c.247,0,.544-.049.792-.049a4.8,4.8,0,0,1,.841.049l.148-2.277Z" transform="translate(-217.646 -42.028)"/><path class="k" d="M248,125.518a4.8,4.8,0,0,1,.841.049l.148-2.326h0L248,122.4" transform="translate(-232.656 -42.028)"/><path class="q" d="M243.843,153.245h-.1a.182.182,0,0,0,.049-.148h-.1v-.049h0c.049-.049.049-.1.1-.148h-.049c-.049,0-.049,0-.049.049-.049,0-.049,0-.1.049a.048.048,0,0,0-.049-.049V152.9c0-.049-.049-.049-.049-.1h0c0,.049-.05.049-.05.1,0,0-.049,0,0,.049-.049,0-.049,0-.049.049-.05-.049-.05-.049-.1-.049a.048.048,0,0,0-.05-.049H243.2c.049.049.049.1.1.148h0v.049h-.1a.182.182,0,0,0,.049.148H243.2c0,.049.049.049.1.1l-.049.049v.049h.1v.1h.049v.1h.1v.1h0l.049-.049h0v.049h0l.049-.049.049.049h0v-.1h.1v-.1h.049v-.1h.1v-.049c0-.049,0-.049-.049-.049v-.1Z" transform="translate(-228.153 -70.547)"/><path class="p" d="M248.346,153.245h-.1a.182.182,0,0,0,.049-.148h-.1v-.049h0c.049-.049.049-.1.1-.148h-.049c-.049,0-.049,0-.049.049-.049,0-.049,0-.1.049a.048.048,0,0,0-.049-.049V152.9c0-.049-.049-.049-.049-.1h0v.891l.049-.049.049.049h0v-.1h.1v-.1h.049v-.1h.1v-.049c0-.049,0-.049-.049-.049a.048.048,0,0,0,.049-.049Z" transform="translate(-232.656 -70.547)"/><path class="q" d="M237.2,136.891h0v-.1h.1v-.1h.049c0-.049,0-.049-.049-.1h.1v-.049a.048.048,0,0,0-.049-.049c.049,0,.049-.049.1-.1h-.1a.182.182,0,0,0,.049-.148h-.1V136.2h0c.049-.049.049-.1.1-.148h-.049c-.049,0-.049,0-.049.049-.049,0-.049,0-.1.049a.048.048,0,0,0-.05-.049v-.049A.048.048,0,0,0,237.1,136h0c0,.049-.049.049-.049.1,0,0-.049,0,0,.049-.049,0-.049,0-.049.049-.049-.049-.049-.049-.1-.049a.048.048,0,0,0-.049-.049H236.8c.049.049.049.1.1.148h0v.049h-.1a.182.182,0,0,0,.049.148H236.8c0,.049.049.049.1.1l-.049.049v.049h.1v.1H237v.1h.1v.1h0l.049-.049h0v.049h0c-.049-.049-.049-.049.05-.049C237.146,136.841,237.146,136.891,237.2,136.891Z" transform="translate(-222.149 -54.787)"/><path class="p" d="M250.293,136.445h-.1a.182.182,0,0,0,.049-.148h-.1v-.049h0c.049-.049.049-.1.1-.148h-.049c-.049,0-.049,0-.049.049-.049,0-.049,0-.1.049,0-.049,0-.049-.049-.049V136.1c0-.049-.049-.049-.049-.1h0a.048.048,0,0,1-.049.049s-.049,0,0,.049c-.049,0-.049,0-.049.049,0-.049-.049-.049-.1-.049a.048.048,0,0,0-.049-.049h-.049c.049.049.049.1.1.148h0v.049h-.1a.182.182,0,0,0,.049.148h-.1c0,.049.049.049.1.1l-.049.049v.049h.1c0,.049-.049.049-.049.1h.049v.1h.1v.1h0l.049-.049.049.049h0v-.049h0l.049.049h0v-.1h.1v-.1h.049v-.1h.1v-.049a.048.048,0,0,0-.049-.049C250.293,136.544,250.293,136.495,250.293,136.445Z" transform="translate(-234.157 -54.787)"/><path class="m" d="M295.085,160.495c-.049-.049-.049-.049-.1-.049a.173.173,0,0,1-.1-.049h-.049c-.049,0-.049,0-.1-.049a.327.327,0,0,0-.3-.049h-.049c-.049-.049-.1-.049-.2-.049-.1-.049-.148-.1-.2-.1a.048.048,0,0,1-.05-.049h0v-.049H293.9l-.05-.049h-.2v.049h.1a.048.048,0,0,0,.049.049h.148a.048.048,0,0,0,.05.049h.148c.049-.049.1,0,.148,0h0s-.049,0,0,.049h.3c.049,0,.049.049.1.049a.173.173,0,0,1,.1.049.048.048,0,0,1,.049.049h0v.049h0c-.049,0-.049,0-.049.049h.049a.048.048,0,0,0,.049-.049s.049-.049,0-.049h0v-.1h-.049a.048.048,0,0,1-.049-.049v-.1h.049a.048.048,0,0,1,.049.049c.049,0,.049.049.1.049s.049.049.1.049h.1Z" transform="translate(-275.435 -77.302)"/><g transform="translate(18.314 82.748)"><path class="a" d="M297.039,162.243a.048.048,0,0,0,.049-.049s.049-.049,0-.049h0v-.1h-.049a.048.048,0,0,1-.049-.049v-.1h.049a.048.048,0,0,1,.049.049c.049,0,.049.049.1.049s.05.049.1.049h.1s.05-.049,0-.049c-.049-.049-.049-.049-.1-.049a.173.173,0,0,1-.1-.049h-.049c-.049,0-.049,0-.1-.049a.327.327,0,0,0-.3-.049h-.05c-.049-.049-.1-.049-.2-.049-.1-.049-.148-.1-.2-.1a.048.048,0,0,1-.049-.049h0l-.049.1h-.049l-.149.1h.247a.048.048,0,0,0,.049.049h.148c.049-.049.1,0,.148,0h0s-.049,0,0,.049h.3c.049,0,.049.049.1.049a.173.173,0,0,1,.1.049.048.048,0,0,1,.049.049h0v.049h0c-.2.1-.2.1-.1.148Z" transform="translate(-296 -161.55)"/><path class="a" d="M298.4,160.8Z" transform="translate(-298.252 -160.8)"/></g><path class="q" d="M267.174,143.043h0c-.049,0-.1,0-.1.049h-.2l-.049-.049h-.2a.048.048,0,0,0-.049-.049h-.148a.048.048,0,0,0-.049-.049c0-.049,0-.049-.049-.049h-.05v-.049h0V142.8h0v-.049s.05.049.05,0c.049,0,.049,0,.049-.049.049,0,.049-.049,0-.049h0c.049,0,.1.049.148.049.049.049.1.049.148.1a.446.446,0,0,0,.247.049c.049,0,.1,0,.1-.049h-.05a.182.182,0,0,1-.148-.049.38.38,0,0,1-.148-.1l-.1-.1a.407.407,0,0,0,.346.049h-.2c0-.1-.049-.1-.049-.1-.049,0-.049-.049-.1-.049s-.049-.049-.1-.049h-.148c-.05,0-.1,0-.1.049-.05,0-.05.049-.1.049a.048.048,0,0,0-.049.049l-.049-.049h-.1v.049h0l.049.049h.049l-.049.049a.048.048,0,0,1-.049.049c-.049,0,0,.049,0,.049v.049h.1c-.049.049-.049.049,0,.049v.049h0v.049h0a.048.048,0,0,0-.049.049v.049l-.049.049a.048.048,0,0,0,.049.049v.1h0v.049h0v.049h0v.148l-.049.05c0,.049-.049.049-.1.049s-.049.049,0,.049l.049.049h.1v-.049h0v-.1l.049-.05v-.049h.049v.2h0a.048.048,0,0,1-.049.049l-.049.049h0l-.049.049h0v.049h.1v-.049h0v-.1h0a.048.048,0,0,1,.049-.049v-.1h.148s0,.049.049,0h0v.049h0v.049l-.049.049-.05.049c-.049,0-.049.049-.1.049h-.049v.049h.1v-.049h0v-.1l.1-.1h.049l.05-.049h.148v.049l-.049.049a.048.048,0,0,1-.049.049.048.048,0,0,0-.049.049h-.05a.048.048,0,0,0,.05.049v.049h.1a.048.048,0,0,0,.049-.049v-.05h0l.049-.049.1-.1h0l.05-.049h0v-.049h0v-.049c.049,0,.049-.049,0-.049.049,0,0-.049,0-.049v-.049c.049,0,.049,0,.049-.049v-.049h.1c.049,0,.049,0,.049-.049v-.049c.049,0,.049,0,.049-.049.3.049.3.049.247,0Z" transform="translate(-249.355 -60.791)"/><path class="p" d="M267.875,143.142h0c.05-.049.05-.049.1-.049h0c0-.049,0-.049-.049-.049h-.3l-.049-.049h-.4a.048.048,0,0,0-.049-.049c0-.049,0-.049-.049-.049h-.049v-.049h0V142.8h0v-.049s.049.049.049,0c.049,0,.049,0,.049-.049.049,0,.049-.049,0-.049h0c.049,0,.1.049.148.049.05.049.1.049.148.1a.446.446,0,0,0,.247.049c.049,0,.1,0,.1-.049h-.049a.182.182,0,0,1-.148-.049.38.38,0,0,1-.148-.1l-.1-.1a.407.407,0,0,0,.346.049h-.2c0-.1-.049-.1-.049-.1-.049,0-.049-.049-.1-.049s-.05-.049-.1-.049h-.1l-.346.792h0v.049h0v.049h0v.148l-.049.049c0,.049-.05.049-.1.049s-.05.049,0,.049l.049.049h.1v-.049h0v-.1l.049-.049v-.049h.049v.2h0a.048.048,0,0,1-.049.049l-.049.049h0l-.049.049h0v.05h.1v-.05h0v-.1h0a.048.048,0,0,1,.049-.049v-.1h.148s0,.049.05,0h0v.049h0v.049l-.05.049-.049.049c-.049,0-.049.049-.1.049h-.049v.049h.1v-.049h0v-.1l.1-.1h.05l.049-.049h.148v.049l-.049.049a.048.048,0,0,1-.049.049.048.048,0,0,0-.049.049h-.049a.048.048,0,0,0,.049.049v.049h.1a.048.048,0,0,0,.049-.049v-.049h0l.049-.049.1-.1h0l.049-.049h0v-.049h0v-.049c.049,0,.049-.049,0-.049.049,0,0-.049,0-.049v-.049c.049,0,.049,0,.049-.049v-.049h.1C267.875,143.192,267.875,143.192,267.875,143.142Z" transform="translate(-250.105 -60.791)"/></g></svg>