<svg xmlns="http://www.w3.org/2000/svg" width="30" height="20.323" viewBox="0 0 30 20.323"><defs><style>.a{fill:#74acdf;}.b{fill:#fff;}.c{fill:#5a9bcc;}.d{fill:#e8f8fc;}.e{fill:#418ab7;}.f{fill:#ceecf4;}.g{fill:#f6b40e;}</style></defs><g transform="translate(0 -80)"><g transform="translate(0 80)"><path class="a" d="M0,304v5.076c0,2.1,1.306,3.59,2.9,3.59H27.1c1.6,0,2.9-1.486,2.9-3.59V304Z" transform="translate(0 -292.344)"/><path class="a" d="M27.1,80H2.9C1.306,80,0,81.486,0,83.59v5.076H30V83.59C30,81.486,28.694,80,27.1,80Z" transform="translate(0 -80)"/></g><rect class="b" width="29.619" height="8" transform="translate(0.19 86.161)"/><g transform="translate(3.714 80)"><path class="c" d="M325.352,312.667a3.689,3.689,0,0,0,3.838-3.59V304H315.2Z" transform="translate(-302.905 -292.344)"/><path class="c" d="M71.469,80H48l7.792,8.667H74.286V83.59C74.286,81.486,73.018,80,71.469,80Z" transform="translate(-48 -80)"/></g><path class="d" d="M190.524,200.667h13.929V192H180Z" transform="translate(-174.452 -106.172)"/><path class="e" d="M71.469,80H48l21.733,8.667h4.553V83.59C74.286,81.486,73.018,80,71.469,80Z" transform="translate(-44.286)"/><path class="f" d="M420.714,193.733V192H414.4Z" transform="translate(-390.714 -105.361)"/><path class="e" d="M30,368.062c0,2.229-1.306,3.652-2.9,3.652H2.9c-1.6,0-2.9-1.61-2.9-3.714" transform="translate(0 -271.392)"/><path class="g" d="M199.99,195.533l-.062-.062-2.414-.062c.124,0,.186-.062.31-.124.248-.062.433-.186.681-.124a1.21,1.21,0,0,0,.867-.248.227.227,0,0,1,.186-.062c.124-.062.186,0,.248,0s.124.062.124,0v-.062a.721.721,0,0,0-.433-.124c-.124,0-.186.062-.248.062a1.043,1.043,0,0,1-.743.124,2.309,2.309,0,0,0-.743.124.785.785,0,0,1-.371.062l2.229-1.052c.062,0,.124-.062.062-.124a.061.061,0,0,0-.062-.062H199.5l-2.229.8c.062-.062.186-.124.248-.186a1.114,1.114,0,0,1,.557-.371,1.8,1.8,0,0,0,.743-.557l.124-.124a.372.372,0,0,1,.248-.062c.062,0,.124,0,.124-.062a.061.061,0,0,0-.062-.062c-.062-.062-.248-.062-.433.062l-.186.186a1.324,1.324,0,0,1-.619.371,1.787,1.787,0,0,0-.619.371,1.353,1.353,0,0,1-.31.186l1.671-1.8c.062-.062.062-.124,0-.124h-.186l-1.733,1.671c.062-.124.124-.186.124-.31.124-.186.186-.433.371-.557a1.353,1.353,0,0,0,.433-.743c0-.062.062-.124.062-.186.062-.124.124-.124.186-.186.062,0,.124-.062.062-.124a.061.061,0,0,0-.062-.062.448.448,0,0,0-.371.248.469.469,0,0,0-.124.248,1.129,1.129,0,0,1-.433.619,1.505,1.505,0,0,0-.433.557c-.062.124-.124.186-.186.31l.867-2.29v-.062c0-.062,0-.062-.062-.062h-.124v.062l-.99,2.167v-.31a1.333,1.333,0,0,1,.124-.681,1.6,1.6,0,0,0,.124-.867V191.7a.322.322,0,0,1,.124-.248c.062-.062.062-.062.062-.124,0,0-.062-.062-.062,0a.364.364,0,0,0-.248.371V192a1.4,1.4,0,0,1-.186.743,1.879,1.879,0,0,0-.186.681.785.785,0,0,1-.062.371l-.062-2.476c0-.062,0-.124-.062-.124s-.062,0-.062.062v.062l-.062,2.414c0-.124-.062-.186-.124-.31-.062-.248-.186-.433-.124-.681a1.21,1.21,0,0,0-.248-.867.227.227,0,0,1-.062-.186c-.062-.124,0-.186,0-.248s.062-.124,0-.124h-.062a.722.722,0,0,0-.124.433c0,.124.062.186.062.248a1.137,1.137,0,0,1,.124.743,2.309,2.309,0,0,0,.124.743.785.785,0,0,1,.062.371l-1.052-2.229c0-.062-.062-.124-.124-.062a.061.061,0,0,0-.062.062v.124l.8,2.229c-.062-.062-.124-.186-.186-.248a1.113,1.113,0,0,1-.371-.557,1.8,1.8,0,0,0-.557-.743l-.124-.124a.372.372,0,0,1-.062-.248c0-.062,0-.124-.062-.124a.061.061,0,0,0-.062.062c-.062.062-.062.248.062.433l.186.186a1.324,1.324,0,0,1,.371.619,1.787,1.787,0,0,0,.371.619,1.353,1.353,0,0,1,.186.31l-1.919-1.671c-.062-.062-.124-.062-.124,0a.086.086,0,0,0,0,.124v.062l1.61,1.733c-.124-.062-.186-.124-.31-.124-.186-.124-.433-.186-.557-.371a1.353,1.353,0,0,0-.743-.433c-.062,0-.124-.062-.186-.062-.124-.062-.124-.124-.186-.186,0-.062-.062-.124-.124-.062a.061.061,0,0,0-.062.062.448.448,0,0,0,.248.371c.062.062.186.062.248.124a1.129,1.129,0,0,1,.619.433,1.505,1.505,0,0,0,.557.433c.124.062.186.124.31.186l-2.29-.867h-.062c-.062,0-.062,0-.062.062v.062a.061.061,0,0,0,.062.062l2.167.99h-.31a1.333,1.333,0,0,1-.681-.124,1.6,1.6,0,0,0-.867-.124H191.7a.322.322,0,0,1-.248-.124c-.062-.062-.062-.062-.124-.062,0,0-.062.062,0,.062a.364.364,0,0,0,.371.248H192a1.4,1.4,0,0,1,.743.186,1.879,1.879,0,0,0,.681.186.785.785,0,0,1,.371.062l-2.476.062c-.062,0-.124,0-.124.062v.062l.062.062,2.414.062c-.124,0-.186.062-.31.124-.248.062-.433.186-.681.124a1.21,1.21,0,0,0-.867.248.227.227,0,0,1-.186.062c-.124.062-.186,0-.248,0s-.124-.062-.124,0v.062a.721.721,0,0,0,.433.124c.124,0,.186-.062.248-.062a1.043,1.043,0,0,1,.743-.124,2.309,2.309,0,0,0,.743-.124.785.785,0,0,1,.371-.062l-2.229,1.052a.119.119,0,0,0-.062.186.216.216,0,0,0,.062.124h0l.062-.062,2.229-.867c-.062.062-.186.124-.248.186a1.114,1.114,0,0,1-.557.371,1.8,1.8,0,0,0-.743.557l-.124.124a.372.372,0,0,1-.248.062c-.062,0-.124,0-.124.062a.061.061,0,0,0,.062.062c.062.062.248.062.433-.062l.186-.186a1.323,1.323,0,0,1,.619-.371,1.787,1.787,0,0,0,.619-.371,1.353,1.353,0,0,1,.31-.186l-1.548,1.8v.124h.124l1.733-1.61c-.062.124-.124.186-.124.31-.124.186-.186.433-.371.557a1.353,1.353,0,0,0-.433.743c0,.062-.062.124-.062.186-.062.124-.124.124-.186.186-.062,0-.124.062-.062.124a.061.061,0,0,0,.062.062.448.448,0,0,0,.371-.248.469.469,0,0,0,.124-.248,1.129,1.129,0,0,1,.433-.619,1.5,1.5,0,0,0,.433-.557c.062-.124.124-.186.186-.31l-.867,2.29v.062c0,.062,0,.062.062.062h.062a.061.061,0,0,0,.062-.062l.99-2.167v.31a1.333,1.333,0,0,1-.124.681,1.6,1.6,0,0,0-.124.867v.186a.322.322,0,0,1-.124.248c0,.062-.062.062,0,.124,0,0,.062.062.062,0,.124,0,.248-.124.248-.371v-.31a1.4,1.4,0,0,1,.186-.743,1.879,1.879,0,0,0,.186-.681.785.785,0,0,1,.062-.371l.062,2.476c0,.062,0,.124.062.124h.062l.062-.062.062-2.414c0,.124.062.186.124.31.062.248.186.433.124.681a1.21,1.21,0,0,0,.248.867.227.227,0,0,1,.062.186c.062.124,0,.186,0,.248s-.062.124,0,.124h.124a.721.721,0,0,0,.124-.433c0-.124-.062-.186-.062-.248a1.137,1.137,0,0,1-.124-.743,2.309,2.309,0,0,0-.124-.743.785.785,0,0,1-.062-.371l1.052,2.229c0,.062.062.124.124.062a.061.061,0,0,0,.062-.062v-.062l-.8-2.229c.062.062.124.186.186.248a1.114,1.114,0,0,1,.371.557,1.8,1.8,0,0,0,.557.743l.124.124a.372.372,0,0,1,.062.248c0,.062,0,.124.062.124h0a.061.061,0,0,0,.062-.062c.062-.062.062-.248-.062-.433l-.186-.186a1.323,1.323,0,0,1-.371-.619,1.787,1.787,0,0,0-.371-.619,1.352,1.352,0,0,1-.186-.31l1.8,1.671h.186v-.062a.061.061,0,0,0-.062-.062l-1.671-1.857c.124.062.186.124.31.124.186.124.433.186.557.371a1.353,1.353,0,0,0,.743.433c.062,0,.124.062.186.062.124.062.124.124.186.186a.061.061,0,0,0,.062.062h0a.061.061,0,0,0,.062-.062.448.448,0,0,0-.248-.371.469.469,0,0,0-.248-.124,1.129,1.129,0,0,1-.619-.433,1.505,1.505,0,0,0-.557-.433c-.124-.062-.186-.124-.31-.186l2.29.867h.062c.062,0,.062,0,.062-.062V197.2a.061.061,0,0,0-.062-.062l-2.167-.99h.31a1.333,1.333,0,0,1,.681.124,1.6,1.6,0,0,0,.867.124h.186a.322.322,0,0,1,.248.124l.062.062h.062s.062-.062,0-.062c0-.124-.124-.248-.371-.248h-.31a1.4,1.4,0,0,1-.743-.186,1.879,1.879,0,0,0-.681-.186.785.785,0,0,1-.371-.062l2.476-.062c.124-.124.186-.124.186-.248Z" transform="translate(-180.595 -105.434)"/><g transform="translate(13.7 89.102)"><path class="d" d="M252.371,240.31h0a.664.664,0,0,0,.371-.124.464.464,0,0,0-.743,0,.455.455,0,0,0,.371.124Zm.31-.124a.322.322,0,0,1-.248.124c.062,0,.062-.062.062-.124s-.062-.062-.062-.124C252.557,240.062,252.681,240.124,252.681,240.186Zm-.557,0c.062-.062.124-.124.186-.124a.155.155,0,0,0,0,.248C252.248,240.31,252.186,240.248,252.124,240.186Z" transform="translate(-250.39 -239.601)"/><path class="d" d="M250.957,239.2a.664.664,0,0,0-.371.124c-.124.062-.124.062-.186.062a.061.061,0,0,0,.062.062c.062,0,.124-.062.186-.124.124-.062.186-.062.31-.124.31.062.433.31.5.248A.669.669,0,0,0,250.957,239.2Z" transform="translate(-248.914 -238.863)"/><path class="d" d="M264.8,240Z" transform="translate(-262.2 -239.601)"/><path class="d" d="M248.572,235.861c0,.062-.062.124-.062.186a1.065,1.065,0,0,0,.124.743l.062-.062a1,1,0,0,1-.186-.557.322.322,0,0,1,.124-.248.784.784,0,0,1,1.052.124A.679.679,0,0,0,248.572,235.861Z" transform="translate(-247.149 -235.586)"/><path class="d" d="M251.744,243.324a.765.765,0,0,1-.186-.124c-.062,0-.062.062.124.124a.511.511,0,0,0,.681-.124C252.054,243.386,251.868,243.386,251.744,243.324Z" transform="translate(-249.949 -242.554)"/><path class="d" d="M242.4,249.786c-.062,0-.062-.062-.124-.062a.2.2,0,0,1-.371,0c0,.062-.062.062-.124.062a.133.133,0,0,1-.124-.124c0-.062,0-.062.062-.062a.124.124,0,0,0,0,.248c.062,0,.062,0,.124-.062a.227.227,0,0,0,.186.062h0a.227.227,0,0,0,.186-.062c0,.062.062.062.124.062a.124.124,0,0,0,0-.248.061.061,0,0,1,.062.062C242.467,249.786,242.467,249.786,242.4,249.786Z" transform="translate(-240.795 -248.458)"/><path class="d" d="M242.59,257.477a.779.779,0,0,0-.5-.062h-.186a.468.468,0,0,0-.248.062H241.6c.31.062.186.248.5.248h0c.371,0,.186-.248.5-.248Zm-.5.186h0c-.248,0-.186-.186-.5-.186.248-.062.31.062.433.062h0c.124,0,.186-.124.5-.062C242.281,257.477,242.343,257.663,242.1,257.663Z" transform="translate(-240.795 -255.655)"/><path class="d" d="M241.357,255.324h0c.062,0,.186-.062.248,0a.854.854,0,0,1,.248.186c-.124-.124-.186-.248-.371-.248,0-.062-.062-.062-.124.062h0c-.062-.062-.124-.124-.186-.124-.186,0-.248.124-.371.248a.854.854,0,0,1,.248-.186C241.171,255.2,241.3,255.324,241.357,255.324Z" transform="translate(-240.057 -253.625)"/><path class="d" d="M244.31,261.6a.292.292,0,0,0-.31.31.31.31,0,1,1,.619,0C244.557,261.724,244.433,261.6,244.31,261.6Z" transform="translate(-243.01 -259.53)"/><path class="d" d="M231.2,240Z" transform="translate(-231.2 -239.601)"/><path class="d" d="M232.314,235.122a.469.469,0,0,1,.124.248.529.529,0,0,1-.186.557.061.061,0,0,1,.062.062,1.065,1.065,0,0,0,.124-.743.227.227,0,0,0-.062-.186.741.741,0,0,0-1.176.186A.865.865,0,0,1,232.314,235.122Z" transform="translate(-231.2 -234.848)"/><path class="d" d="M232.8,239.324a.766.766,0,0,1,.186.124.061.061,0,0,0,.062-.062.479.479,0,0,1-.186-.062c-.124-.062-.124-.124-.371-.124a.669.669,0,0,0-.5.248c.062,0,.186-.248.5-.248C232.619,239.262,232.681,239.262,232.8,239.324Z" transform="translate(-231.938 -238.863)"/><path class="d" d="M233.6,240.186a.664.664,0,0,0,.371.124h0a.88.88,0,0,0,.371-.124.441.441,0,0,0-.371-.186A.535.535,0,0,0,233.6,240.186Zm.062,0a.322.322,0,0,1,.248-.124c-.062,0-.062.062-.062.124a.133.133,0,0,0,.124.124C233.848,240.31,233.786,240.248,233.662,240.186Zm.433-.124c.062,0,.124.062.186.124-.062.062-.124.062-.186.124a.216.216,0,0,0,.062-.124C234.157,240.124,234.157,240.124,234.1,240.062Z" transform="translate(-233.414 -239.601)"/><path class="d" d="M234.4,243.2a.636.636,0,0,1-.8.062.742.742,0,0,0,.681.124C234.467,243.2,234.467,243.2,234.4,243.2Z" transform="translate(-233.414 -242.554)"/></g></g></svg>